<svg width="20" height="20" viewBox="0 0 20 20" fill="none" xmlns="http://www.w3.org/2000/svg">
<g clip-path="url(#clip0_6206_34063)">
<path d="M17.8598 1.19837C16.4773 0.713372 15.1098 0.375039 13.7956 0.190038C12.4814 0.00503847 11.0731 -0.0441282 9.60642 0.0392051C8.08725 0.127538 6.82892 1.26837 6.61225 2.75171L6.37475 4.38421C6.31725 4.39171 6.26059 4.39921 6.20309 4.40671C4.88892 4.59171 3.52142 4.93004 2.13892 5.41504C0.702252 5.92004 -0.183582 7.36504 0.0322516 8.85254L0.865585 14.5759C1.26392 17.3167 4.91225 19.0375 7.05142 19.82C7.38225 19.9417 7.72475 20.0009 8.06475 20.0009C8.66559 20.0009 9.25559 19.815 9.74892 19.4542C11.0098 18.5342 12.7031 17.0934 13.6131 15.445C13.6348 15.4059 13.6531 15.365 13.6681 15.3242C15.8189 14.4467 18.7781 12.8109 19.1348 10.3575L19.9681 4.63421C20.1839 3.14671 19.2981 1.70171 17.8606 1.19671L17.8598 1.19837ZM8.76642 18.1084C8.44392 18.3442 8.01642 18.3984 7.62309 18.2559C4.62142 17.1584 2.71142 15.6934 2.51475 14.3367L1.68142 8.61337C1.57892 7.91337 2.00392 7.23004 2.68975 6.98921C3.86059 6.57921 5.01392 6.28254 6.12392 6.10504L5.77892 8.47587C5.75309 8.65421 5.74142 8.83171 5.74309 9.00921C5.47809 8.82754 5.18392 8.74087 4.88559 8.78421C4.28392 8.87087 3.84975 9.45171 3.68642 10.2142C3.63225 10.4675 3.84809 10.6967 4.10392 10.66L6.00559 10.3884C6.21809 10.9759 6.54725 11.5442 6.94059 12.0809C5.80392 12.4567 4.99225 13.4292 4.65809 14.6117C4.54975 14.9959 4.98642 15.3025 5.31809 15.0809C6.42809 14.3384 7.44142 13.9559 8.58725 13.8842C9.15892 14.4092 9.73475 14.8625 10.2256 15.2217C10.5773 15.4792 10.9756 15.65 11.3906 15.73C10.5439 16.7409 9.44892 17.6109 8.76559 18.11L8.76642 18.1084ZM18.3173 4.39504L17.4839 10.1184C17.2873 11.475 15.3773 12.94 12.3764 14.0367C11.9831 14.18 11.5481 14.12 11.2114 13.8742C8.64642 11.9975 7.23309 10.0692 7.42975 8.71504L8.26225 2.99171C8.36475 2.28754 8.97059 1.74587 9.70309 1.70337C10.1323 1.67837 10.5548 1.66587 10.9714 1.66587C11.8714 1.66587 12.7398 1.72421 13.5639 1.83921C14.7698 2.00837 16.0289 2.32171 17.3089 2.77004C17.9956 3.01171 18.4198 3.69421 18.3181 4.39421L18.3173 4.39504ZM15.4439 9.43421C14.6498 10.4992 13.4214 11.1359 12.1106 10.95C10.8006 10.7642 9.80142 9.81004 9.33725 8.56754C9.19309 8.18171 9.62059 7.83254 9.97975 8.03421C11.6656 8.98004 13.0948 9.18421 14.9789 8.74587C15.3781 8.65337 15.6889 9.10504 15.4439 9.43421ZM16.1739 6.09254C16.2281 6.34587 16.0123 6.57504 15.7564 6.53837L13.6998 6.24421C13.4439 6.20754 13.3006 5.92754 13.4239 5.69921C13.7939 5.01254 14.3731 4.57504 14.9756 4.66254C15.5773 4.74921 16.0106 5.33004 16.1739 6.09254ZM9.53392 5.14421C9.90392 4.45754 10.4831 4.02004 11.0856 4.10754C11.6873 4.19421 12.1214 4.77504 12.2848 5.53754C12.3389 5.79087 12.1231 6.02004 11.8673 5.98337L9.81059 5.68921C9.55475 5.65254 9.41142 5.37254 9.53475 5.14421H9.53392Z" fill="#FAFAFA"/>
</g>
<defs>
<clipPath id="clip0_6206_34063">
<rect width="20" height="20" fill="white"/>
</clipPath>
</defs>
</svg>
