<svg width="20" height="20" viewBox="0 0 20 20" fill="none" xmlns="http://www.w3.org/2000/svg">
<g clip-path="url(#clip0_6206_33240)">
<path d="M8.2675 8.09583C7.8975 8.23833 7.50333 8.33333 7.08333 8.33333C5.53167 8.33333 4.23583 7.26333 3.86583 5.82583C3.90833 5.82667 3.95167 5.83333 3.995 5.83333C6.25917 5.83333 8.32917 4.445 9.185 2.3225C9.37083 2.45 9.54833 2.58833 9.70917 2.7475C9.365 3.425 9.16667 4.18917 9.16667 5C9.16667 7.7575 11.4092 10 14.1667 10C16.9242 10 19.1667 7.7575 19.1667 5C19.1667 2.2425 16.9242 0 14.1667 0C12.8208 0 11.5992 0.5375 10.6992 1.40583C9.73167 0.5275 8.465 0 7.08333 0C6.84083 0 6.60333 0.0233333 6.37 0.0566667C4.29833 0.328333 2.55417 1.755 1.915 3.79167C1.81667 4.10417 0.791667 8.45167 0.0616667 11.5583C0.644167 11.0475 1.31917 10.6458 2.05167 10.3775C2.29333 9.35 2.52917 8.35083 2.73917 7.465C3.6 8.97583 5.22333 9.99917 7.08333 9.99917C7.86333 9.99917 8.59667 9.81 9.25417 9.49083C8.86917 9.07 8.535 8.60417 8.2675 8.09583ZM14.1667 1.66667C16.005 1.66667 17.5 3.16167 17.5 5C17.5 6.83833 16.005 8.33333 14.1667 8.33333C12.3283 8.33333 10.8333 6.83833 10.8333 5C10.8333 3.16167 12.3283 1.66667 14.1667 1.66667ZM7.63167 1.70917C7.32167 2.47333 6.79167 3.12417 6.07833 3.56833C5.40667 3.9875 4.6425 4.19083 3.86917 4.16417C4.2425 2.73167 5.53583 1.66583 7.08333 1.66583C7.26917 1.66583 7.45167 1.6825 7.63083 1.70833L7.63167 1.70917ZM20 15.4167V20H18.3333V15.4167C18.3333 14.5325 17.7617 13.7575 16.9492 13.4675L14.1717 16.6867L11.3542 13.475C10.5492 13.77 10 14.5308 10 15.4175V20.0008H8.33333V15.4175C8.33333 13.555 9.67417 12 11.5225 11.7208L11.9733 11.6525L14.1617 14.1475L16.3142 11.6533L16.7633 11.715C18.6092 11.97 20 13.5617 20 15.4167ZM4.5275 11.6667L6.66667 14.1325V16.6592L3.78833 13.3775H3.39833C2.4075 13.5542 1.66667 14.4208 1.66667 15.4158V19.9992H0V15.4158C0 13.5858 1.37833 11.9967 3.20667 11.72L3.75 11.6667H4.5275Z" fill="#FAFAFA"/>
</g>
<defs>
<clipPath id="clip0_6206_33240">
<rect width="20" height="20" fill="white"/>
</clipPath>
</defs>
</svg>
