<svg width="21" height="20" viewBox="0 0 21 20" fill="none" xmlns="http://www.w3.org/2000/svg">
<path d="M18.2713 15.5861C17.9684 16.2848 17.6097 16.928 17.1942 17.5193C16.6279 18.3255 16.1641 18.8835 15.8067 19.1934C15.2527 19.702 14.6591 19.9625 14.0235 19.9773C13.5672 19.9773 13.0169 19.8477 12.3763 19.5847C11.7337 19.323 11.143 19.1934 10.603 19.1934C10.0366 19.1934 9.4292 19.323 8.77948 19.5847C8.12877 19.8477 7.60456 19.9847 7.20377 19.9983C6.59424 20.0242 5.98668 19.7563 5.38024 19.1934C4.99318 18.8563 4.50904 18.2786 3.92906 17.4601C3.30679 16.586 2.7952 15.5725 2.39441 14.417C1.96517 13.1689 1.75 11.9603 1.75 10.7902C1.75 9.44984 2.04011 8.29383 2.6212 7.32509C3.07789 6.54696 3.68544 5.93316 4.44584 5.48255C5.20625 5.03195 6.02786 4.80233 6.91267 4.78763C7.39681 4.78763 8.03169 4.93714 8.82066 5.23096C9.6074 5.52576 10.1126 5.67526 10.334 5.67526C10.4996 5.67526 11.0608 5.50045 12.0121 5.15195C12.9118 4.82874 13.6711 4.69492 14.2931 4.74764C15.9786 4.88343 17.2449 5.54675 18.0871 6.74177C16.5796 7.6536 15.8339 8.93072 15.8488 10.5691C15.8624 11.8452 16.3261 12.9071 17.2375 13.7503C17.6505 14.1417 18.1118 14.4441 18.625 14.6589C18.5137 14.9812 18.3962 15.2898 18.2713 15.5861ZM14.4056 0.400114C14.4056 1.40034 14.0396 2.33425 13.31 3.19867C12.4295 4.22629 11.3645 4.8201 10.2096 4.7264C10.1949 4.60641 10.1864 4.48011 10.1864 4.3474C10.1864 3.38718 10.6051 2.35956 11.3487 1.51934C11.7199 1.09392 12.1921 0.74019 12.7646 0.458013C13.336 0.180046 13.8764 0.0263242 14.3846 0C14.3995 0.133715 14.4056 0.267438 14.4056 0.400101V0.400114Z" fill="#FAFAFA"/>
</svg>
