<svg width="1599" height="1210" viewBox="0 0 1599 1210" fill="none" xmlns="http://www.w3.org/2000/svg">
<rect x="160" y="257" width="1280" height="768" rx="32" fill="#1C1C31"/>
<g filter="url(#filter0_f_7224_28739)">
<path fill-rule="evenodd" clip-rule="evenodd" d="M798.041 637.423C790.352 612.453 812.14 584.767 831.432 567.335C851.098 549.566 888.332 560.953 905.28 540.524C923.275 518.832 905.063 480.541 922.086 458.062C937.53 437.669 966.049 430.893 991.182 427.093C1016.61 423.248 1048.8 417.92 1067.15 436.131C1089.71 458.527 1076.53 500.081 1092.49 527.669C1101.67 543.539 1123.35 546.442 1137.58 557.891C1155.35 572.183 1180.69 582.076 1187.38 604.006C1193.83 625.163 1179.53 647.341 1171.07 667.76C1163.4 686.253 1150.73 701.6 1139.94 718.429C1129.31 735.007 1121.52 753.461 1107.39 767.109C1092.69 781.3 1076.13 796.038 1056.08 799.425C1035.94 802.827 1016.81 790.215 996.865 785.78C978.798 781.763 961.364 776.767 943.029 774.284C918.058 770.902 885.196 787.273 868.32 768.37C851.393 749.408 882.003 714.878 869.955 692.43C855.499 665.495 807.051 666.68 798.041 637.423Z" fill="#18BB54" fill-opacity="0.5"/>
</g>
<g filter="url(#filter1_f_7224_28739)">
<path fill-rule="evenodd" clip-rule="evenodd" d="M800.959 573.077C808.648 598.047 786.86 625.733 767.568 643.165C747.902 660.934 710.668 649.547 693.72 669.976C675.725 691.667 693.937 729.959 676.914 752.438C661.47 772.831 632.951 779.607 607.818 783.407C582.386 787.252 550.197 792.58 531.853 774.369C509.294 751.973 522.469 710.419 506.51 682.831C497.329 666.961 475.649 664.058 461.417 652.609C443.652 638.317 418.306 628.424 411.622 606.494C405.174 585.337 419.466 563.159 427.931 542.74C435.598 524.247 448.274 508.9 459.061 492.071C469.688 475.493 477.484 457.039 491.614 443.391C506.306 429.2 522.87 414.462 542.916 411.075C563.057 407.673 582.192 420.285 602.135 424.72C620.202 428.737 637.636 433.733 655.971 436.216C680.942 439.598 713.804 423.227 730.68 442.13C747.607 461.092 716.997 495.622 729.045 518.07C743.501 545.005 791.949 543.82 800.959 573.077Z" fill="#008DE3" fill-opacity="0.5"/>
</g>
<defs>
<filter id="filter0_f_7224_28739" x="386.457" y="13.2812" width="1212.54" height="1196.72" filterUnits="userSpaceOnUse" color-interpolation-filters="sRGB">
<feFlood flood-opacity="0" result="BackgroundImageFix"/>
<feBlend mode="normal" in="SourceGraphic" in2="BackgroundImageFix" result="shape"/>
<feGaussianBlur stdDeviation="205" result="effect1_foregroundBlur_7224_28739"/>
</filter>
<filter id="filter1_f_7224_28739" x="0" y="0.5" width="1212.54" height="1196.72" filterUnits="userSpaceOnUse" color-interpolation-filters="sRGB">
<feFlood flood-opacity="0" result="BackgroundImageFix"/>
<feBlend mode="normal" in="SourceGraphic" in2="BackgroundImageFix" result="shape"/>
<feGaussianBlur stdDeviation="205" result="effect1_foregroundBlur_7224_28739"/>
</filter>
</defs>
</svg>
