<svg width="20" height="20" viewBox="0 0 20 20" fill="none" xmlns="http://www.w3.org/2000/svg">
<path d="M2.91797 8.75H14.9278C16.1409 8.75 16.7475 8.75 17.1244 9.11612C17.5013 9.48223 17.5013 10.0715 17.5013 11.25V12.5C17.5013 15.2499 17.5013 16.6248 16.6219 17.4791C15.7425 18.3333 14.3271 18.3333 11.4964 18.3333H8.92287C6.09213 18.3333 4.67676 18.3333 3.79737 17.4791C2.91797 16.6248 2.91797 15.2499 2.91797 12.5V8.75Z" stroke="white" stroke-width="1.5"/>
<path d="M2.91523 8.75521C2.61765 7.6236 2.46886 7.0578 2.50545 6.5603C2.57099 5.66923 3.03118 4.85705 3.75576 4.35368C4.1603 4.07264 4.71558 3.92104 5.82615 3.61782L12.2767 1.85664C12.5639 1.77823 12.7075 1.73902 12.8314 1.71676C14.2087 1.46932 15.5614 2.26514 16.0397 3.60415C16.0828 3.72462 16.1212 3.87095 16.1982 4.16359C16.2202 4.2472 16.2312 4.28901 16.2374 4.32508C16.3068 4.72602 16.0836 5.11985 15.7082 5.2591C15.6744 5.27162 15.6334 5.28283 15.5513 5.30523L2.91523 8.75521Z" stroke="white" stroke-width="1.5"/>
<path d="M5.83203 8.34375L7.4987 3.34375" stroke="white" stroke-width="1.5"/>
<path d="M11.668 6.67187L13.3346 1.67188" stroke="white" stroke-width="1.5"/>
<path d="M6.66797 15H9.16797" stroke="white" stroke-width="1.5" stroke-linecap="round"/>
</svg>
