<svg width="32" height="32" viewBox="0 0 32 32" fill="none" xmlns="http://www.w3.org/2000/svg">
<rect width="32" height="32" rx="8" fill="#3B3B4D"/>
<path d="M9.33203 13.3333C9.33203 14.2279 14.7361 16.6667 15.9987 16.6667C17.2613 16.6667 22.6654 14.2279 22.6654 13.3333C22.6654 12.4388 17.2613 10 15.9987 10C14.7361 10 9.33203 12.4388 9.33203 13.3333Z" stroke="#FAFAFA" stroke-width="0.96" stroke-linecap="round" stroke-linejoin="round"/>
<path d="M12 15.3281L12.1626 19.0588C12.1666 19.149 12.176 19.2394 12.2036 19.3254C12.2724 19.5394 12.3946 19.733 12.578 19.8644C14.0611 20.9271 17.9389 20.9271 19.422 19.8644C19.6054 19.733 19.7276 19.5394 19.7964 19.3254C19.824 19.2394 19.8334 19.149 19.8374 19.0588L20 15.3281" stroke="#FAFAFA" stroke-width="0.96" stroke-linecap="round" stroke-linejoin="round"/>
<path d="M22.1441 14.3281C22.1441 14.063 21.9292 13.8481 21.6641 13.8481C21.399 13.8481 21.1841 14.063 21.1841 14.3281H22.1441ZM20.7117 21.1704L21.1787 21.2814L20.7117 21.1704ZM22.6164 21.1704L23.0834 21.0595L22.6164 21.1704ZM21.1841 14.3281V18.9996H22.1441V14.3281H21.1841ZM21.1787 21.2814C21.2758 20.8725 21.4427 20.4994 21.6208 20.1509C21.7846 19.8304 21.9968 19.4639 22.1105 19.1759L21.2176 18.8233C21.1259 19.0555 20.972 19.311 20.766 19.7141C20.5743 20.0892 20.3678 20.5413 20.2447 21.0595L21.1787 21.2814ZM23.0834 21.0595C22.9604 20.5413 22.7539 20.0892 22.5622 19.7141C22.3562 19.311 22.2022 19.0555 22.1105 18.8233L21.2176 19.1759C21.3314 19.4639 21.5435 19.8304 21.7073 20.1509C21.8854 20.4994 22.0523 20.8725 22.1494 21.2814L23.0834 21.0595ZM21.8744 21.5148H21.4538V22.4748H21.8744V21.5148ZM20.2447 21.0595C20.1625 21.4052 20.1159 21.8531 20.4339 22.172C20.5829 22.3215 20.7672 22.3922 20.931 22.4285C21.0942 22.4647 21.274 22.4748 21.4538 22.4748V21.5148C21.301 21.5148 21.2019 21.5053 21.1388 21.4913C21.0763 21.4774 21.0869 21.4673 21.1137 21.4942C21.1482 21.5288 21.1473 21.56 21.1451 21.5363C21.1418 21.5019 21.1446 21.4248 21.1787 21.2814L20.2447 21.0595ZM22.1494 21.2814C22.1835 21.4248 22.1863 21.5019 22.1831 21.5363C22.1808 21.56 22.1799 21.5288 22.2144 21.4942C22.2413 21.4673 22.2518 21.4774 22.1893 21.4913C22.1262 21.5053 22.0271 21.5148 21.8744 21.5148V22.4748C22.0542 22.4748 22.2339 22.4647 22.3971 22.4285C22.5609 22.3922 22.7452 22.3215 22.8942 22.172C23.2122 21.8531 23.1656 21.4052 23.0834 21.0595L22.1494 21.2814Z" fill="#FAFAFA"/>
</svg>
