<svg width="21" height="20" viewBox="0 0 21 20" fill="none" xmlns="http://www.w3.org/2000/svg">
<g clip-path="url(#clip0_6206_34188)">
<path d="M19.3125 8.46083C18.5908 8.1625 17.7675 8.325 17.215 8.8775L16.85 9.2425C16.4892 8.3725 15.8417 7.65083 15.0258 7.19417C15.83 6.43417 16.3325 5.35833 16.3325 4.16667C16.3325 1.86917 14.4633 0 12.1658 0C10.8042 0 9.59333 0.656667 8.8325 1.66917C8.07167 0.655833 6.86083 0 5.49917 0C3.2025 0.000833333 1.33333 1.87 1.33333 4.1675C1.33333 5.35833 1.83583 6.435 2.64 7.195C1.36417 7.90833 0.5 9.2725 0.5 10.8342V15.8342C0.5 18.1317 2.36917 20.0008 4.66667 20.0008H13C14.7342 20.0008 16.2242 18.9358 16.8508 17.4258L17.2158 17.7908C17.585 18.16 18.075 18.3558 18.5742 18.3558C18.8225 18.3558 19.0733 18.3075 19.3125 18.2083C20.0342 17.91 20.5 17.2117 20.5 16.4308V10.24C20.5 9.45833 20.0333 8.76083 19.3125 8.4625V8.46083ZM12.1667 1.6675C13.545 1.6675 14.6667 2.78917 14.6667 4.1675C14.6667 5.54583 13.545 6.6675 12.1667 6.6675C10.7883 6.6675 9.66667 5.54583 9.66667 4.1675C9.66667 2.78917 10.7883 1.6675 12.1667 1.6675ZM5.5 1.6675C6.87833 1.6675 8 2.78917 8 4.1675C8 5.54583 6.87833 6.6675 5.5 6.6675C4.12167 6.6675 3 5.54583 3 4.1675C3 2.78917 4.12167 1.6675 5.5 1.6675ZM15.5 15.8342C15.5 17.2125 14.3783 18.3342 13 18.3342H4.66667C3.28833 18.3342 2.16667 17.2125 2.16667 15.8342V10.8342C2.16667 9.45583 3.28833 8.33417 4.66667 8.33417H13C14.3783 8.33417 15.5 9.45583 15.5 10.8342V15.8342ZM18.8333 16.4292C18.8333 16.5717 18.7467 16.6375 18.6742 16.6675C18.6025 16.6975 18.495 16.7125 18.3933 16.6117L17.1667 15.385V11.2833L18.3933 10.0567C18.495 9.95583 18.6025 9.97083 18.6742 10.0008C18.7467 10.0308 18.8333 10.0967 18.8333 10.2392V16.4292Z" fill="#FAFAFA"/>
</g>
<defs>
<clipPath id="clip0_6206_34188">
<rect width="20" height="20" fill="white" transform="translate(0.5)"/>
</clipPath>
</defs>
</svg>
