<svg width="32" height="33" viewBox="0 0 32 33" fill="none" xmlns="http://www.w3.org/2000/svg">
<rect y="0.5" width="32" height="32" rx="8" fill="#3B3B4D"/>
<path d="M20 13.8307C18.8859 13.4121 17.5009 13.1641 16 13.1641C14.4991 13.1641 13.1141 13.4121 12 13.8307" stroke="#FAFAFA" stroke-width="0.96" stroke-linecap="round"/>
<path d="M12.6438 13.8359L12.1575 12.8943C11.7716 12.1471 11.5787 11.7735 11.7002 11.4433C11.8217 11.1131 12.1956 10.9949 12.9434 10.7585L15.5905 9.92163C15.7712 9.8645 15.8616 9.83594 15.9543 9.83594C16.0471 9.83594 16.1374 9.8645 16.3181 9.92163L19.1435 10.8148C19.8171 11.0278 20.1539 11.1343 20.2823 11.4332C20.4108 11.7321 20.2728 12.0883 19.9968 12.8008L19.5959 13.8359" stroke="#FAFAFA" stroke-width="0.96" stroke-linecap="round"/>
<path d="M12.6641 13.8359V14.9861C12.6641 16.1816 13.2784 17.2894 14.2824 17.9045L14.6254 18.1146C15.4699 18.6319 16.5249 18.6319 17.3694 18.1146L17.7124 17.9045C18.7164 17.2894 19.3307 16.1816 19.3307 14.9861V13.8359" stroke="#FAFAFA" stroke-width="0.96" stroke-linecap="round"/>
<path d="M17.9987 17.8359L18.6654 19.8359M18.6654 19.8359L17.7528 20.6329C16.9169 21.3629 16.499 21.7279 15.9987 21.7279C15.4984 21.7279 15.0805 21.3629 14.2446 20.6329L13.332 19.8359M18.6654 19.8359L19.8215 20.2213C20.4868 20.4431 20.8195 20.554 21.1148 20.7254C21.4039 20.8932 21.6662 21.1036 21.8927 21.3494C22.1241 21.6005 22.6654 22.5026 22.6654 23.1693M13.9987 17.8359L13.332 19.8359M13.332 19.8359L12.1759 20.2213C11.5106 20.4431 11.1779 20.554 10.8825 20.7254C10.5935 20.8932 10.3312 21.1036 10.1047 21.3494C9.87331 21.6005 9.33203 22.5026 9.33203 23.1693" stroke="#FAFAFA" stroke-width="0.96" stroke-linecap="round" stroke-linejoin="round"/>
</svg>
