<svg width="49" height="48" viewBox="0 0 49 48" fill="none" xmlns="http://www.w3.org/2000/svg">
<g clip-path="url(#clip0_5968_65505)">
<rect opacity="0.15" x="0.5" width="48" height="48" rx="12" fill="#1ED760"/>
<path d="M25.605 17.7707L31.5711 19.3603M24.3261 22.5167L27.3092 23.3115M24.4745 31.458L25.6677 31.776C29.0427 32.6752 30.7302 33.1248 32.0596 32.3616C33.389 31.5984 33.8411 29.9204 34.7454 26.5645L36.0243 21.8185C36.9287 18.4626 37.3808 16.7846 36.6133 15.4627C35.8458 14.1408 34.1583 13.6912 30.7833 12.792L29.5901 12.474C26.2151 11.5748 24.5277 11.1252 23.1983 11.8884C21.8689 12.6516 21.4167 14.3296 20.5124 17.6855L19.2335 22.4315C18.3292 25.7874 17.877 27.4654 18.6445 28.7873C19.4121 30.1092 21.0995 30.5588 24.4745 31.458Z" stroke="#1ED760" stroke-width="1.875" stroke-linecap="round"/>
<path d="M24.5039 35.1829L23.3135 35.507C19.9464 36.4239 18.2629 36.8823 16.9366 36.1042C15.6104 35.326 15.1593 33.6151 14.2571 30.1933L12.9812 25.3543C12.079 21.9325 11.6279 20.2216 12.3936 18.8738C13.056 17.7079 14.5039 17.7503 16.3789 17.7502" stroke="#1ED760" stroke-width="1.875" stroke-linecap="round"/>
</g>
<defs>
<clipPath id="clip0_5968_65505">
<rect x="0.5" width="48" height="48" rx="12" fill="white"/>
</clipPath>
</defs>
</svg>
