<svg width="152" height="151" viewBox="0 0 152 151" fill="none" xmlns="http://www.w3.org/2000/svg">
<path d="M57.752 87.0234H112.883V93.196H57.752V87.0234Z" fill="#B0B0B7"/>
<path d="M48.2901 57.8828H23.2518C21.8784 57.8828 20.5894 58.417 19.6205 59.3859C18.6624 60.344 18.1152 61.6676 18.1152 63.0194V105.673C18.1152 107.025 18.6624 108.351 19.6205 109.305C20.5916 110.278 21.8806 110.812 23.254 110.812H48.2901C49.6613 110.812 50.9524 110.278 51.9213 109.307C52.8794 108.351 53.4266 107.027 53.4266 105.673V63.0194C53.4266 61.6676 52.8794 60.3419 51.9213 59.3881C50.9524 58.417 49.6634 57.8828 48.2901 57.8828ZM37.9737 106.329H33.5703C32.3765 106.329 31.4076 105.36 31.4076 104.166C31.4076 102.972 32.3765 102.003 33.5703 102.003H37.9737C39.1675 102.003 40.1365 102.972 40.1365 104.166C40.1365 105.36 39.1675 106.329 37.9737 106.329Z" fill="#B0B0B7"/>
<path d="M123.894 71.1736V47.6644C123.894 43.5855 120.576 40.2656 116.497 40.2656H47.5334C43.4544 40.2656 40.1367 43.5855 40.1367 47.6644V53.558H48.2903C50.8186 53.558 53.1976 54.542 54.9819 56.3284C56.7683 58.1149 57.7524 60.4896 57.7524 63.02V82.6968H112.883V77.1948C112.883 75.6073 113.528 74.0544 114.65 72.9363C115.766 71.8181 117.317 71.1736 118.904 71.1736H123.894Z" fill="#B0B0B7"/>
<path d="M134.409 75.9996C134.091 75.6817 133.655 75.5 133.209 75.5H118.905C118.457 75.5 118.022 75.6795 117.709 75.9953C117.391 76.3132 117.209 76.7501 117.209 77.1956V102.005H134.905V77.1978C134.905 76.7501 134.725 76.3132 134.409 75.9996Z" fill="#B0B0B7"/>
<path d="M117.209 109.114C117.209 109.566 117.386 109.994 117.706 110.314C118.022 110.63 118.459 110.812 118.905 110.812H133.209C133.657 110.812 134.091 110.632 134.405 110.316C134.727 109.994 134.905 109.568 134.905 109.114V106.328H117.209V109.114Z" fill="#B0B0B7"/>
<path d="M100.567 106.49H93.8233L91.9006 97.5234H72.12L70.1973 106.49H63.4538C62.2599 106.49 61.291 107.459 61.291 108.653C61.291 109.847 62.2599 110.816 63.4538 110.816H100.565C101.758 110.816 102.727 109.847 102.727 108.653C102.727 107.459 101.761 106.49 100.567 106.49Z" fill="#B0B0B7"/>
</svg>
