<svg width="20" height="20" viewBox="0 0 20 20" fill="none" xmlns="http://www.w3.org/2000/svg">
<g clip-path="url(#clip0_6206_33568)">
<path d="M12.49 10.6059C12.6217 12.0893 11.4567 13.3343 10 13.3343H6.685C6.10917 13.3343 5.70083 12.7793 5.8725 12.2301C6.29083 10.8893 7.48583 8.75927 9.40583 8.39011C10.8683 8.10844 12.3583 9.1226 12.49 10.6059ZM19.1667 7.50094C18.7058 7.50094 18.3333 7.87344 18.3333 8.33427V12.5009C18.3333 13.8793 17.2117 15.0009 15.8333 15.0009H4.16667C2.78833 15.0009 1.66667 13.8793 1.66667 12.5009V5.83427C1.66667 4.45594 2.78833 3.33427 4.16667 3.33427H10.8333C11.2942 3.33427 11.6667 2.96177 11.6667 2.50094C11.6667 2.0401 11.2942 1.6676 10.8333 1.6676H4.16667C1.86917 1.6676 0 3.53677 0 5.83427V12.5009C0 14.7984 1.86917 16.6676 4.16667 16.6676H9.16667V18.3343H6.66667C6.20667 18.3343 5.83333 18.7068 5.83333 19.1676C5.83333 19.6284 6.20667 20.0009 6.66667 20.0009H13.3333C13.7942 20.0009 14.1667 19.6284 14.1667 19.1676C14.1667 18.7068 13.7942 18.3343 13.3333 18.3343H10.8333V16.6676H15.8333C18.1308 16.6676 20 14.7984 20 12.5009V8.33427C20 7.87344 19.6275 7.50094 19.1667 7.50094ZM11.3217 7.23844C11.3275 7.24094 11.3342 7.24344 11.34 7.24677C11.66 7.38677 12.0317 7.29594 12.2642 7.0351L16.965 1.92677C17.255 1.6026 17.7533 1.5751 18.0767 1.8651C18.0875 1.8751 18.0975 1.88427 18.1083 1.8951C18.4158 2.20177 18.4158 2.69927 18.1092 3.00677C18.1092 3.00677 18.1092 3.00677 18.1083 3.0076L13.2383 7.74594C12.9625 8.02177 12.9233 8.44927 13.1358 8.77677C13.1392 8.78177 13.1425 8.78677 13.145 8.79094C13.4275 9.23177 14.0433 9.29594 14.4133 8.92594L19.2833 4.18844C20.24 3.2301 20.24 1.6776 19.2833 0.719271C18.3258 -0.239062 16.7733 -0.239896 15.815 0.717605C15.7825 0.750105 11.0142 5.93094 11.0142 5.93094C10.635 6.35677 10.7983 7.01261 11.3217 7.23844Z" fill="#FAFAFA"/>
</g>
<defs>
<clipPath id="clip0_6206_33568">
<rect width="20" height="20" fill="white"/>
</clipPath>
</defs>
</svg>
