<svg width="49" height="48" viewBox="0 0 49 48" fill="none" xmlns="http://www.w3.org/2000/svg">
<g clip-path="url(#clip0_5968_65515)">
<rect opacity="0.15" x="0.5" width="48" height="48" rx="12" fill="#1ED760"/>
<g clip-path="url(#clip1_5968_65515)">
<path d="M35.4636 31.5C36.4003 31.5 37.1453 30.9106 37.8142 30.0864C39.1835 28.3993 36.9353 27.051 36.0778 26.3908C35.2061 25.7195 34.2329 25.3393 33.2461 25.25M31.9961 22.75C33.722 22.75 35.1211 21.3509 35.1211 19.625C35.1211 17.8991 33.722 16.5 31.9961 16.5" stroke="#1ED760" stroke-width="1.875" stroke-linecap="round"/>
<path d="M13.5285 31.5C12.5919 31.5 11.8469 30.9106 11.178 30.0864C9.8087 28.3993 12.0569 27.051 12.9144 26.3908C13.7861 25.7195 14.7593 25.3393 15.7461 25.25M16.3711 22.75C14.6452 22.75 13.2461 21.3509 13.2461 19.625C13.2461 17.8991 14.6452 16.5 16.3711 16.5" stroke="#1ED760" stroke-width="1.875" stroke-linecap="round"/>
<path d="M19.6008 27.889C18.3236 28.6787 14.9748 30.2914 17.0145 32.3093C18.0108 33.295 19.1205 34 20.5156 34H28.4766C29.8717 34 30.9814 33.295 31.9777 32.3093C34.0174 30.2914 30.6686 28.6787 29.3913 27.889C26.3963 26.037 22.5959 26.037 19.6008 27.889Z" stroke="#1ED760" stroke-width="1.875" stroke-linecap="round" stroke-linejoin="round"/>
<path d="M28.8711 18.375C28.8711 20.7912 26.9123 22.75 24.4961 22.75C22.0798 22.75 20.1211 20.7912 20.1211 18.375C20.1211 15.9588 22.0798 14 24.4961 14C26.9123 14 28.8711 15.9588 28.8711 18.375Z" stroke="#1ED760" stroke-width="1.875"/>
</g>
</g>
<defs>
<clipPath id="clip0_5968_65515">
<rect x="0.5" width="48" height="48" rx="12" fill="white"/>
</clipPath>
<clipPath id="clip1_5968_65515">
<rect width="30" height="30" fill="white" transform="translate(9.5 9)"/>
</clipPath>
</defs>
</svg>
