<svg width="20" height="20" viewBox="0 0 20 20" fill="none" xmlns="http://www.w3.org/2000/svg">
<g clip-path="url(#clip0_6206_33229)">
<path d="M10 8.33333C12.2975 8.33333 14.1667 6.46417 14.1667 4.16667C14.1667 1.86917 12.2975 0 10 0C7.7025 0 5.83333 1.86917 5.83333 4.16667C5.83333 6.46417 7.7025 8.33333 10 8.33333ZM10 1.66667C11.3783 1.66667 12.5 2.78833 12.5 4.16667C12.5 5.545 11.3783 6.66667 10 6.66667C8.62167 6.66667 7.5 5.545 7.5 4.16667C7.5 2.78833 8.62167 1.66667 10 1.66667ZM19.1667 15.8333H16.6667C16.6667 12.1575 13.6758 9.16667 10 9.16667C6.32417 9.16667 3.33333 12.1575 3.33333 15.8333H0.833333C0.373333 15.8333 0 16.2067 0 16.6667C0 17.1267 0.373333 17.5 0.833333 17.5H1.66667V19.1667C1.66667 19.6267 2.04 20 2.5 20C2.96 20 3.33333 19.6267 3.33333 19.1667V17.5H16.6667V19.1667C16.6667 19.6267 17.04 20 17.5 20C17.96 20 18.3333 19.6267 18.3333 19.1667V17.5H19.1667C19.6267 17.5 20 17.1267 20 16.6667C20 16.2067 19.6267 15.8333 19.1667 15.8333ZM5 15.8333C5 13.6892 6.35917 11.8608 8.25917 11.1525L9.24833 12.6367L8.3325 15.8333H5ZM10.7508 12.6367L11.74 11.1525C13.64 11.8617 14.9992 13.6892 14.9992 15.8333H11.6658L10.75 12.6367H10.7508Z" fill="#FAFAFA"/>
</g>
<defs>
<clipPath id="clip0_6206_33229">
<rect width="20" height="20" fill="white"/>
</clipPath>
</defs>
</svg>
