<svg width="20" height="20" viewBox="0 0 20 20" fill="none" xmlns="http://www.w3.org/2000/svg">
<g clip-path="url(#clip0_6206_33565)">
<path d="M18.3318 9.16615H4.53926L17.9184 5.69115C18.7959 5.46365 19.3251 4.59199 19.1143 3.66949L18.8226 2.62449C18.4701 0.806987 16.4751 -0.408847 14.7009 0.114487L2.47593 3.38282C0.732593 3.85115 -0.329907 5.65782 0.11176 7.42282L0.83176 10.1087V15.8328C0.83176 18.1303 2.70093 19.9995 4.99843 19.9995H15.8318C18.1293 19.9995 19.9984 18.1303 19.9984 15.8328V10.8328C19.9984 9.91365 19.2509 9.16615 18.3318 9.16615ZM9.53509 3.22115L7.30093 6.72782L5.06176 7.30949L7.29259 3.82032L9.53509 3.22115ZM14.3793 1.92699L12.1751 5.46199L9.66926 6.11282L11.9176 2.58449L14.3793 1.92699ZM17.5001 4.07865L14.5193 4.85282L16.3709 1.88282C16.3909 1.89365 16.4126 1.89782 16.4318 1.90949C16.8259 2.14865 17.0959 2.52865 17.2051 3.02532L17.5001 4.07865ZM2.90676 4.99199L4.90509 4.45782L2.68759 7.92532L2.01843 8.09949L1.72426 7.00615C1.50593 6.13032 2.03676 5.22615 2.90676 4.99199ZM18.3318 15.8328C18.3318 17.2112 17.2101 18.3328 15.8318 18.3328H4.99843C3.62009 18.3328 2.49843 17.2112 2.49843 15.8328V10.8328H18.3318V15.8328Z" fill="#FAFAFA"/>
</g>
<defs>
<clipPath id="clip0_6206_33565">
<rect width="20" height="20" fill="white"/>
</clipPath>
</defs>
</svg>
