<svg width="180" height="61" viewBox="0 0 180 61" fill="none" xmlns="http://www.w3.org/2000/svg">
<path d="M81.881 7.02669C81.881 5.04778 82.4066 3.56166 83.4604 2.5735C84.5116 1.58275 86.1654 1.08997 88.4165 1.08997H95.034V3.19078H88.4165C87.0679 3.19078 86.0808 3.50719 85.4526 4.14262C84.8244 4.7599 84.5116 5.71952 84.5116 7.02669V10.388H93.6776V12.5173H84.5116V20.6975H81.881V7.02669ZM107.041 7.2238C107.836 7.2238 108.5 7.42091 109.036 7.81255L108.425 9.97041C107.797 9.59693 107.133 9.41019 106.431 9.41019C105.6 9.41019 104.89 9.76552 104.297 10.4736C103.708 11.1842 103.272 12.1361 102.995 13.3317V20.6975H100.559V10.4736C100.559 10.0819 100.485 9.76292 100.339 9.52172C100.19 9.25977 99.9234 8.97966 99.5362 8.6814L101.169 7.2238C101.816 7.57912 102.267 7.97075 102.526 8.40129C102.803 8.81108 102.959 9.39204 102.997 10.139C103.403 9.22346 103.949 8.51541 104.631 8.00966C105.313 7.48575 106.118 7.2264 107.041 7.2264V7.2238ZM115.635 4.95441C115.209 4.95441 114.84 4.80399 114.527 4.50572C114.233 4.18931 114.084 3.81583 114.084 3.3853C114.084 2.95476 114.233 2.59166 114.527 2.2934C114.84 1.97698 115.209 1.81618 115.635 1.81618C116.061 1.81618 116.42 1.97439 116.714 2.2934C117.027 2.59166 117.186 2.95735 117.186 3.3853C117.186 3.81324 117.03 4.18931 116.714 4.50572C116.42 4.80399 116.058 4.95441 115.635 4.95441ZM116.245 21.0035C115.563 20.63 115.081 20.2099 114.804 19.743C114.545 19.258 114.417 18.5941 114.417 17.7538V7.52984H116.853V17.7538C116.853 18.1454 116.927 18.4722 117.073 18.7341C117.222 18.9779 117.489 19.2477 117.876 19.5459L116.243 21.0035H116.245ZM135.49 17.7538C135.49 18.1454 135.564 18.4722 135.711 18.7341C135.859 18.9779 136.126 19.2477 136.513 19.5459L134.88 21.0035C134.013 20.5367 133.449 19.7897 133.19 18.7627C132.267 20.2566 130.819 21.0035 128.842 21.0035C127.698 21.0035 126.691 20.7416 125.824 20.2203C124.975 19.6782 124.311 18.9235 123.829 17.9509C123.368 16.9809 123.137 15.8501 123.137 14.5611V13.6637C123.137 12.4136 123.358 11.3009 123.801 10.3309C124.263 9.36092 124.919 8.60359 125.768 8.06153C126.634 7.50132 127.66 7.22121 128.842 7.22121C130.724 7.22121 132.129 7.87479 133.052 9.18196V3.44235C133.052 3.05072 132.977 2.73171 132.831 2.49051C132.703 2.24671 132.434 1.95882 132.029 1.62166L133.69 0.164062C134.372 0.537539 134.844 0.968074 135.103 1.45307C135.362 1.91992 135.49 2.58388 135.49 3.44235V17.7564V17.7538ZM133.054 11.9286C132.759 10.9949 132.306 10.305 131.698 9.85629C131.108 9.38945 130.342 9.15602 129.401 9.15602C128.237 9.15602 127.306 9.57618 126.604 10.4165C125.922 11.2568 125.578 12.3409 125.578 13.6663V14.5636C125.578 15.889 125.919 16.9731 126.604 17.8134C127.288 18.6537 128.219 19.0739 129.401 19.0739C130.342 19.0739 131.108 18.8508 131.698 18.4022C132.308 17.9353 132.759 17.235 133.054 16.3013V11.9312V11.9286ZM152.863 17.7538C152.863 18.1454 152.938 18.4722 153.084 18.7341C153.232 18.9779 153.499 19.2477 153.886 19.5459L152.253 21.0035C151.312 20.5185 150.74 19.826 150.535 18.9312C150.092 19.5667 149.474 20.0698 148.679 20.4433C147.905 20.8168 147.007 21.0035 145.992 21.0035C144.607 21.0035 143.536 20.6767 142.779 20.0231C142.023 19.3514 141.643 18.3892 141.643 17.1391C141.643 15.889 142.087 14.8878 142.972 14.255C143.859 13.6196 145.077 13.2176 146.628 13.0516L148.51 12.8285C149.304 12.7352 149.82 12.5951 150.061 12.4084C150.32 12.2035 150.44 11.8585 150.42 11.3709C150.345 10.6421 150.051 10.0638 149.533 9.63324C149.035 9.20271 148.269 8.99003 147.235 8.99003C146.479 8.99003 145.833 9.11971 145.297 9.38166C144.761 9.62546 144.271 10.0249 143.83 10.5851L142.169 9.38166C142.631 8.67102 143.266 8.13934 144.079 7.78402C144.91 7.41054 145.961 7.2238 147.235 7.2238C149.099 7.2238 150.502 7.61543 151.445 8.40129C152.386 9.18455 152.858 10.3257 152.858 11.8196V17.7589L152.863 17.7538ZM146.576 19.1828C147.74 19.1828 148.671 18.8742 149.374 18.2595C150.094 17.6422 150.453 16.859 150.453 15.9071V14.0294C150.027 14.2732 149.374 14.4314 148.487 14.5066L146.853 14.6752C144.933 14.8982 143.974 15.6919 143.974 17.0561C143.974 17.746 144.195 18.2803 144.638 18.6537C145.082 19.0091 145.728 19.1854 146.576 19.1854V19.1828ZM170.764 7.52984V22.264C170.764 23.9083 170.331 25.1118 169.462 25.8769C168.595 26.6601 167.237 27.0544 165.39 27.0544H161.957V25.1507H165.39C166.388 25.1507 167.126 24.9069 167.606 24.4219C168.085 23.955 168.326 23.2262 168.326 22.2381V18.6252C167.439 20.2125 166.001 21.0061 164.006 21.0061C162.604 21.0061 161.504 20.6041 160.711 19.8027C159.937 18.9805 159.547 17.8419 159.547 16.3843V10.5021C159.547 10.1105 159.473 9.79145 159.327 9.55025C159.178 9.28829 158.911 9.00041 158.524 8.6814L160.158 7.2238C160.84 7.59728 161.311 8.02781 161.57 8.51281C161.847 8.97966 161.986 9.64362 161.986 10.5021V16.1872C161.986 17.1028 162.216 17.8108 162.678 18.3166C163.157 18.8016 163.821 19.0454 164.673 19.0454C165.67 19.0454 166.501 18.7004 167.165 18.0079C167.829 17.2973 168.216 16.4207 168.329 15.3754V7.53244H170.764V7.52984ZM86.8935 27.3085H80.7734V25.2077H95.6698V27.3085H89.5215V44.8152H86.8909V27.3085H86.8935ZM107.618 41.8741C107.618 42.2657 107.692 42.5925 107.838 42.8545C107.987 43.0983 108.254 43.368 108.641 43.6663L107.007 45.1239C106.067 44.6389 105.495 43.9464 105.29 43.0516C104.846 43.687 104.228 44.1902 103.433 44.5636C102.659 44.9371 101.762 45.1239 100.746 45.1239C99.3619 45.1239 98.2901 44.7971 97.5338 44.1435C96.7774 43.4718 96.398 42.5095 96.398 41.2594C96.398 40.0093 96.8415 39.0082 97.7261 38.3754C98.6106 37.7425 99.8311 37.3379 101.382 37.1719L103.264 36.9489C104.059 36.8555 104.574 36.7155 104.815 36.5287C105.074 36.3238 105.195 35.9789 105.174 35.4913C105.1 34.7625 104.805 34.1841 104.287 33.7536C103.79 33.323 103.023 33.1104 101.99 33.1104C101.234 33.1104 100.587 33.2401 100.052 33.502C99.5157 33.7458 99.026 34.1452 98.585 34.7054L96.9236 33.502C97.3851 32.7914 98.0209 32.2597 98.8337 31.9044C99.6644 31.5309 100.716 31.3441 101.99 31.3441C103.854 31.3441 105.256 31.7358 106.2 32.5216C107.141 33.3049 107.613 34.4461 107.613 35.94V41.8793L107.618 41.8741ZM101.331 43.3032C102.495 43.3032 103.426 42.9945 104.128 42.3799C104.849 41.7626 105.208 40.9793 105.208 40.0275V38.1497C104.782 38.3935 104.128 38.5517 103.241 38.6269L101.608 38.7955C99.6875 39.0186 98.7286 39.8122 98.7286 41.1764C98.7286 41.8663 98.9491 42.4006 99.3926 42.7741C99.8362 43.1294 100.482 43.3058 101.331 43.3058V43.3032ZM116.002 45.1239C115.32 44.7504 114.838 44.3302 114.561 43.8634C114.302 43.3784 114.174 42.7144 114.174 41.8741V27.5316C114.174 27.1399 114.099 26.8209 113.953 26.5797C113.804 26.3178 113.538 26.0377 113.151 25.7394L114.756 24.2818C115.458 24.6553 115.938 25.0858 116.197 25.5708C116.473 26.0377 116.612 26.6913 116.612 27.5316V41.8741C116.612 42.2657 116.676 42.5925 116.807 42.8545C116.955 43.0983 117.222 43.368 117.609 43.6663L116.004 45.1239H116.002ZM134.998 44.8152H132.506L131.316 40.2505C131.113 39.5399 130.819 39.0186 130.429 38.6814C130.06 38.3442 129.47 38.1393 128.657 38.0641L126.193 40.5851V44.8152H123.758V27.5601C123.758 27.1503 123.683 26.8235 123.537 26.5797C123.409 26.3359 123.14 26.0558 122.735 25.7394L124.396 24.2818C125.06 24.6553 125.522 25.0858 125.78 25.5708C126.057 26.0558 126.196 26.7198 126.196 27.5601V37.561L131.954 31.6502H134.972L130.403 36.3005C131.308 36.4872 132.019 36.8892 132.536 37.5039C133.054 38.1004 133.477 39.016 133.811 40.2479L135 44.8126L134.998 44.8152ZM141.697 29.0748C141.272 29.0748 140.902 28.9243 140.59 28.6261C140.295 28.3096 140.146 27.9362 140.146 27.5056C140.146 27.0751 140.295 26.712 140.59 26.4137C140.902 26.0973 141.272 25.9365 141.697 25.9365C142.123 25.9365 142.482 26.0947 142.777 26.4137C143.09 26.712 143.248 27.0777 143.248 27.5056C143.248 27.9336 143.092 28.3096 142.777 28.6261C142.482 28.9243 142.12 29.0748 141.697 29.0748ZM142.308 45.1239C141.626 44.7504 141.143 44.3302 140.867 43.8634C140.608 43.3784 140.479 42.7144 140.479 41.8741V31.6502H142.915V41.8741C142.915 42.2657 142.99 42.5925 143.136 42.8545C143.284 43.0983 143.551 43.368 143.938 43.6663L142.305 45.1239H142.308ZM155.427 43.2202C156.183 43.2202 156.83 43.1087 157.365 42.883C157.919 42.66 158.455 42.2943 158.97 41.7911L160.465 43.1631C159.911 43.8349 159.219 44.3302 158.388 44.6466C157.576 44.9631 156.571 45.1239 155.371 45.1239C153.468 45.1239 152.03 44.7141 151.05 43.8919C150.092 43.0516 149.61 41.8093 149.61 40.1675V35.9944C149.61 34.5576 150.099 33.4268 151.076 32.6046C152.073 31.7643 153.43 31.3441 155.148 31.3441C156.865 31.3441 158.286 31.7825 159.245 32.6617C160.224 33.5383 160.711 34.7988 160.711 36.4431C160.711 37.5454 160.516 38.3001 160.129 38.7125C159.76 39.1223 159.04 39.3298 157.971 39.3298H152.045V40.1986C152.045 41.2076 152.322 41.9623 152.876 42.468C153.43 42.9712 154.278 43.2254 155.425 43.2254L155.427 43.2202ZM155.15 33.2478C154.171 33.2478 153.407 33.5098 152.853 34.0311C152.317 34.555 152.05 35.2631 152.05 36.1604V37.561H156.786C157.358 37.561 157.745 37.4676 157.95 37.2809C158.17 37.0941 158.283 36.7388 158.283 36.2175C158.283 35.2838 158.006 34.555 157.453 34.0337C156.899 33.5098 156.132 33.2504 155.155 33.2504L155.15 33.2478ZM171.011 45.1239C169.793 45.1239 168.806 44.9475 168.047 44.5922C167.308 44.2187 166.626 43.6222 165.998 42.8L167.549 41.4565C168.085 42.092 168.601 42.5407 169.1 42.8C169.618 43.062 170.254 43.1916 171.011 43.1916C173.023 43.1916 174.028 42.5484 174.028 41.2594C174.028 40.8496 173.918 40.5228 173.695 40.279C173.492 40.0171 173.123 39.8018 172.587 39.6358C172.07 39.4491 171.285 39.2624 170.234 39.0756C168.942 38.8137 167.972 38.365 167.326 37.7321C166.68 37.0786 166.357 36.2201 166.357 35.1541C166.357 33.9585 166.79 33.0248 167.66 32.3531C168.526 31.6813 169.718 31.3441 171.231 31.3441C173.464 31.3441 175.033 32.0626 175.938 33.502L174.387 34.8195C173.944 34.2775 173.475 33.8859 172.975 33.6421C172.495 33.3983 171.913 33.279 171.231 33.279C170.418 33.279 169.79 33.4475 169.349 33.7821C168.906 34.1193 168.685 34.5861 168.685 35.1827C168.685 35.7247 168.898 36.1449 169.321 36.4431C169.747 36.7232 170.418 36.9567 171.341 37.1434C172.559 37.4235 173.521 37.7218 174.221 38.0408C174.923 38.339 175.449 38.7514 175.8 39.2727C176.151 39.7759 176.326 40.4502 176.326 41.2905C176.326 43.8478 174.554 45.129 171.008 45.129L171.011 45.1239Z" fill="#FAFAFA"/>
<path d="M84.3127 60.1627C83.6076 60.1627 82.9717 60.0045 82.4051 59.6854C81.8436 59.3664 81.4 58.9281 81.0719 58.3679C80.7514 57.8077 80.5898 57.1774 80.5898 56.4798C80.5898 55.7821 80.7514 55.1519 81.0719 54.5916C81.4 54.0314 81.8436 53.5931 82.4051 53.2741C82.9717 52.9551 83.6076 52.7969 84.3127 52.7969C84.8331 52.7969 85.31 52.8825 85.7484 53.0562C86.1869 53.2222 86.5586 53.4712 86.8663 53.8032L86.5381 54.1455C85.9638 53.5724 85.228 53.2845 84.3332 53.2845C83.7306 53.2845 83.1845 53.4219 82.6923 53.6994C82.2 53.977 81.8128 54.3608 81.5334 54.851C81.2539 55.336 81.1129 55.8781 81.1129 56.4798C81.1129 57.0815 81.2539 57.6287 81.5334 58.1189C81.8128 58.6039 82.2 58.9826 82.6923 59.2601C83.1845 59.5376 83.7306 59.6751 84.3332 59.6751C85.2228 59.6751 85.9561 59.3846 86.5381 58.8036L86.8663 59.146C86.5586 59.478 86.1817 59.7295 85.7382 59.9033C85.2998 60.0771 84.8254 60.1627 84.3127 60.1627ZM95.2452 60.1108L93.5325 57.6832C93.2787 57.7169 93.0479 57.7351 92.8351 57.7351H90.784V60.1108H90.261V52.8487H92.8351C93.7376 52.8487 94.4453 53.0666 94.958 53.5023C95.4708 53.9303 95.7272 54.5294 95.7272 55.2971C95.7272 55.8703 95.5811 56.3553 95.2862 56.7495C94.9991 57.1359 94.5863 57.4109 94.0453 57.5691L95.84 60.1108H95.2452ZM92.8351 57.2682C93.6017 57.2682 94.1863 57.0996 94.5888 56.7599C94.9914 56.4149 95.1939 55.9273 95.1939 55.2971C95.1939 54.6669 94.9914 54.1844 94.5888 53.8447C94.1863 53.4997 93.6017 53.326 92.8351 53.326H90.784V57.2682H92.8351ZM103.724 58.067H99.5603L98.6475 60.1108H98.0835L101.386 52.8487H101.909L105.211 60.1108H104.647L103.724 58.067ZM103.529 57.6209L101.642 53.4297L99.7654 57.6209H103.529ZM108.678 53.326V56.4279H112.503V56.9051H108.678V60.1108H108.155V52.8487H112.954V53.326H108.678ZM117.69 53.326H115.105V52.8487H120.797V53.326H118.213V60.1108H117.69V53.326ZM129.897 60.1627C129.371 60.1627 128.868 60.0719 128.389 59.8929C127.917 59.7062 127.548 59.4676 127.281 59.1771L127.517 58.7829C127.771 59.0526 128.11 59.2731 128.533 59.4468C128.963 59.6128 129.415 59.6958 129.886 59.6958C130.571 59.6958 131.086 59.5635 131.435 59.3016C131.784 59.0396 131.958 58.6973 131.958 58.2745C131.958 57.9503 131.866 57.691 131.681 57.4965C131.496 57.3019 131.268 57.1541 130.994 57.0504C130.72 56.9466 130.35 56.8403 129.886 56.7288C129.361 56.5965 128.935 56.4694 128.615 56.3449C128.299 56.2204 128.03 56.0311 127.804 55.7743C127.586 55.5124 127.476 55.1622 127.476 54.7265C127.476 54.3738 127.569 54.0522 127.753 53.7617C127.938 53.4634 128.217 53.23 128.594 53.0562C128.976 52.8825 129.453 52.7969 130.02 52.7969C130.417 52.7969 130.807 52.8565 131.189 52.9732C131.571 53.0899 131.904 53.2508 132.184 53.4505L131.989 53.8758C131.702 53.6761 131.384 53.5231 131.035 53.4193C130.694 53.3156 130.356 53.2637 130.02 53.2637C129.356 53.2637 128.853 53.3986 128.512 53.6683C128.171 53.9381 127.999 54.2882 127.999 54.7161C127.999 55.0403 128.092 55.2997 128.276 55.4942C128.461 55.6887 128.689 55.8366 128.963 55.9403C129.238 56.044 129.609 56.1556 130.081 56.2723C130.607 56.4046 131.027 56.5316 131.343 56.6561C131.658 56.7806 131.925 56.97 132.143 57.2267C132.368 57.4757 132.481 57.8155 132.481 58.2434C132.481 58.5961 132.386 58.9177 132.194 59.2082C132.009 59.4987 131.722 59.7295 131.332 59.9033C130.943 60.0771 130.463 60.1627 129.897 60.1627ZM138.937 60.1627C138.232 60.1627 137.596 60.0045 137.029 59.6854C136.468 59.3664 136.024 58.9281 135.696 58.3679C135.376 57.8077 135.214 57.1774 135.214 56.4798C135.214 55.7821 135.376 55.1519 135.696 54.5916C136.024 54.0314 136.468 53.5931 137.029 53.2741C137.596 52.9551 138.232 52.7969 138.937 52.7969C139.457 52.7969 139.934 52.8825 140.373 53.0562C140.811 53.2222 141.183 53.4712 141.491 53.8032L141.162 54.1455C140.588 53.5724 139.852 53.2845 138.957 53.2845C138.355 53.2845 137.809 53.4219 137.317 53.6994C136.824 53.977 136.437 54.3608 136.158 54.851C135.878 55.336 135.737 55.8781 135.737 56.4798C135.737 57.0815 135.878 57.6287 136.158 58.1189C136.437 58.6039 136.824 58.9826 137.317 59.2601C137.809 59.5376 138.355 59.6751 138.957 59.6751C139.847 59.6751 140.58 59.3846 141.162 58.8036L141.491 59.146C141.183 59.478 140.806 59.7295 140.363 59.9033C139.924 60.0771 139.45 60.1627 138.937 60.1627ZM150.728 52.8487V60.1108H150.205V56.6561H145.406V60.1108H144.883V52.8487H145.406V56.1893H150.205V52.8487H150.728ZM157.923 60.1627C157.218 60.1627 156.582 60.0045 156.015 59.6854C155.449 59.3612 155 58.9177 154.672 58.3575C154.351 57.7973 154.19 57.1723 154.19 56.4798C154.19 55.7873 154.351 55.1622 154.672 54.602C155 54.0418 155.449 53.6035 156.015 53.2845C156.582 52.9603 157.218 52.7969 157.923 52.7969C158.628 52.7969 159.264 52.9551 159.83 53.2741C160.397 53.5931 160.843 54.0314 161.164 54.5916C161.492 55.1519 161.656 55.7821 161.656 56.4798C161.656 57.1774 161.492 57.8077 161.164 58.3679C160.843 58.9281 160.397 59.3664 159.83 59.6854C159.264 60.0045 158.628 60.1627 157.923 60.1627ZM157.923 59.6751C158.525 59.6751 159.069 59.5376 159.553 59.2601C160.038 58.9826 160.423 58.6039 160.702 58.1189C160.982 57.6287 161.123 57.0815 161.123 56.4798C161.123 55.8781 160.982 55.336 160.702 54.851C160.423 54.3608 160.038 53.977 159.553 53.6994C159.069 53.4219 158.525 53.2845 157.923 53.2845C157.32 53.2845 156.774 53.4219 156.282 53.6994C155.797 53.977 155.413 54.3608 155.133 54.851C154.854 55.336 154.713 55.8781 154.713 56.4798C154.713 57.0815 154.854 57.6287 155.133 58.1189C155.413 58.6039 155.797 58.9826 156.282 59.2601C156.774 59.5376 157.32 59.6751 157.923 59.6751ZM168.155 60.1627C167.45 60.1627 166.814 60.0045 166.248 59.6854C165.681 59.3612 165.233 58.9177 164.904 58.3575C164.584 57.7973 164.422 57.1723 164.422 56.4798C164.422 55.7873 164.584 55.1622 164.904 54.602C165.233 54.0418 165.681 53.6035 166.248 53.2845C166.814 52.9603 167.45 52.7969 168.155 52.7969C168.86 52.7969 169.496 52.9551 170.063 53.2741C170.63 53.5931 171.076 54.0314 171.396 54.5916C171.724 55.1519 171.888 55.7821 171.888 56.4798C171.888 57.1774 171.724 57.8077 171.396 58.3679C171.076 58.9281 170.63 59.3664 170.063 59.6854C169.496 60.0045 168.86 60.1627 168.155 60.1627ZM168.155 59.6751C168.758 59.6751 169.301 59.5376 169.786 59.2601C170.271 58.9826 170.655 58.6039 170.935 58.1189C171.214 57.6287 171.355 57.0815 171.355 56.4798C171.355 55.8781 171.214 55.336 170.935 54.851C170.655 54.3608 170.271 53.977 169.786 53.6994C169.301 53.4219 168.758 53.2845 168.155 53.2845C167.553 53.2845 167.007 53.4219 166.514 53.6994C166.03 53.977 165.645 54.3608 165.366 54.851C165.086 55.336 164.945 55.8781 164.945 56.4798C164.945 57.0815 165.086 57.6287 165.366 58.1189C165.645 58.6039 166.03 58.9826 166.514 59.2601C167.007 59.5376 167.553 59.6751 168.155 59.6751ZM175.345 52.8487H175.868V59.6336H180.001V60.1108H175.345V52.8487Z" fill="#FAFAFA"/>
<path fill-rule="evenodd" clip-rule="evenodd" d="M7.69176 19.5391C3.44334 19.5391 0 23.0222 0 27.3198V49.9463C0 54.2438 3.44334 57.727 7.69176 57.727H37.1076C41.356 57.727 44.7994 54.2438 44.7994 49.9463V27.3198C44.7994 23.0222 41.356 19.5391 37.1076 19.5391H7.69176ZM17.6449 47.389L31.408 38.633L17.6449 29.8771C16.2783 29.0082 14.5015 30.0016 14.5015 31.633V45.6305C14.5015 47.2619 16.2783 48.2552 17.6449 47.3864V47.389Z" fill="white"/>
<path d="M55.0687 24.7156L31.4062 38.6847L55.0738 52.5733C57.1249 53.7768 59.694 52.2803 59.694 49.8812V27.4052C59.694 25.0035 57.1172 23.507 55.0661 24.7182L55.0687 24.7156Z" fill="white"/>
<path d="M14.3878 18.3582C19.3438 18.3582 23.3615 14.2941 23.3615 9.28067C23.3615 4.26728 19.3438 0.203125 14.3878 0.203125C9.43173 0.203125 5.41406 4.26728 5.41406 9.28067C5.41406 14.2941 9.43173 18.3582 14.3878 18.3582Z" fill="#FAFAFA"/>
<path d="M14.3878 18.3582C19.3438 18.3582 23.3615 14.2941 23.3615 9.28067C23.3615 4.26728 19.3438 0.203125 14.3878 0.203125C9.43173 0.203125 5.41406 4.26728 5.41406 9.28067C5.41406 14.2941 9.43173 18.3582 14.3878 18.3582Z" fill="white"/>
<path d="M31.0568 18.3616C34.7385 18.3616 37.723 15.3426 37.723 11.6183C37.723 7.89409 34.7385 4.875 31.0568 4.875C27.3752 4.875 24.3906 7.89409 24.3906 11.6183C24.3906 15.3426 27.3752 18.3616 31.0568 18.3616Z" fill="#FAFAFA"/>
<path d="M31.0568 18.3616C34.7385 18.3616 37.723 15.3426 37.723 11.6183C37.723 7.89409 34.7385 4.875 31.0568 4.875C27.3752 4.875 24.3906 7.89409 24.3906 11.6183C24.3906 15.3426 27.3752 18.3616 31.0568 18.3616Z" fill="white"/>
</svg>
