<svg width="109" height="36" viewBox="0 0 109 36" fill="none" xmlns="http://www.w3.org/2000/svg">
<g clip-path="url(#clip0_6530_19283)">
<path d="M49.5848 4.14723C49.5848 2.9626 49.9031 2.07296 50.5412 1.48142C51.1777 0.888333 52.1792 0.593339 53.5424 0.593339H57.5496V1.85094H53.5424C52.7257 1.85094 52.1279 2.04036 51.7476 2.42074C51.3672 2.79026 51.1777 3.36472 51.1777 4.14723V6.1594H56.7283V7.43408H51.1777V12.331H49.5848V4.14723ZM64.8204 4.26523C65.3017 4.26523 65.7038 4.38323 66.0283 4.61767L65.6588 5.90943C65.2784 5.68585 64.8763 5.57407 64.4509 5.57407C63.9478 5.57407 63.5178 5.78677 63.1591 6.21063C62.802 6.63604 62.5381 7.20585 62.3704 7.92159V12.331H60.8954V6.21063C60.8954 5.97619 60.8504 5.78522 60.7619 5.64083C60.6719 5.48402 60.5104 5.31634 60.276 5.13779L61.265 4.26523C61.6562 4.47793 61.9295 4.71238 62.0863 4.97011C62.254 5.21542 62.3487 5.5632 62.372 6.01035C62.6173 5.46228 62.948 5.03842 63.361 4.73567C63.774 4.42204 64.2615 4.26678 64.8204 4.26678V4.26523ZM70.0247 2.90671C69.767 2.90671 69.5434 2.81666 69.354 2.63811C69.1754 2.44869 69.0854 2.22512 69.0854 1.96739C69.0854 1.70966 69.1754 1.49229 69.354 1.31374C69.5434 1.12433 69.767 1.02807 70.0247 1.02807C70.2824 1.02807 70.4998 1.12277 70.6784 1.31374C70.8678 1.49229 70.964 1.71121 70.964 1.96739C70.964 2.22357 70.8693 2.44869 70.6784 2.63811C70.4998 2.81666 70.2809 2.90671 70.0247 2.90671ZM70.3942 12.5142C69.9812 12.2906 69.6893 12.0391 69.5217 11.7596C69.3649 11.4693 69.2872 11.0718 69.2872 10.5688V4.44844H70.7622V10.5688C70.7622 10.8032 70.8072 10.9988 70.8957 11.1557C70.9858 11.3016 71.1472 11.4631 71.3817 11.6416L70.3927 12.5142H70.3942ZM82.048 10.5688C82.048 10.8032 82.093 10.9988 82.1815 11.1557C82.2716 11.3016 82.4331 11.4631 82.6675 11.6416L81.6785 12.5142C81.1537 12.2347 80.8121 11.7876 80.6553 11.1727C80.0964 12.067 79.2192 12.5142 78.0221 12.5142C77.3297 12.5142 76.7195 12.3574 76.1947 12.0453C75.6808 11.7208 75.2787 11.269 74.9868 10.6868C74.7073 10.1061 74.5676 9.42916 74.5676 8.65752V8.12033C74.5676 7.37197 74.7011 6.70591 74.9697 6.12524C75.2492 5.54457 75.6467 5.09121 76.1606 4.76672C76.6853 4.43136 77.3064 4.26368 78.0221 4.26368C79.1617 4.26368 80.0126 4.65493 80.5715 5.43744V2.00154C80.5715 1.7671 80.5265 1.57613 80.438 1.43174C80.3603 1.2858 80.1973 1.11346 79.952 0.911622L80.9581 0.0390625C81.3711 0.262636 81.6568 0.520367 81.8136 0.810703C81.9704 1.09017 82.048 1.48763 82.048 2.00154V10.5703V10.5688ZM80.573 7.08164C80.3945 6.5227 80.1197 6.10971 79.7517 5.84111C79.3946 5.56165 78.9304 5.42191 78.3606 5.42191C77.6557 5.42191 77.0921 5.67343 76.6667 6.17647C76.2537 6.67952 76.0457 7.3285 76.0457 8.12188V8.65908C76.0457 9.45245 76.2522 10.1014 76.6667 10.6045C77.0813 11.1075 77.6449 11.359 78.3606 11.359C78.9304 11.359 79.3946 11.2255 79.7517 10.9569C80.1212 10.6775 80.3945 10.2583 80.573 9.69932V7.08319V7.08164ZM92.5684 10.5688C92.5684 10.8032 92.6134 10.9988 92.7019 11.1557C92.792 11.3016 92.9534 11.4631 93.1879 11.6416L92.1989 12.5142C91.6291 12.2238 91.2829 11.8093 91.1586 11.2736C90.89 11.654 90.5159 11.9552 90.0346 12.1788C89.5657 12.4024 89.0223 12.5142 88.4074 12.5142C87.569 12.5142 86.9201 12.3185 86.462 11.9273C86.004 11.5252 85.7742 10.9492 85.7742 10.2008C85.7742 9.45245 86.0428 8.85315 86.5785 8.47432C87.1157 8.09393 87.8532 7.85328 88.7925 7.75391L89.9321 7.62039C90.4134 7.5645 90.7255 7.48066 90.8714 7.36887C91.0282 7.24621 91.1012 7.03972 91.0888 6.74783C91.0438 6.31155 90.8652 5.96532 90.5516 5.70759C90.2504 5.44986 89.7862 5.32255 89.1605 5.32255C88.7024 5.32255 88.3112 5.40018 87.9867 5.55699C87.6622 5.70293 87.3657 5.94203 87.0986 6.27739L86.0925 5.55699C86.372 5.13158 86.757 4.8133 87.2492 4.60059C87.7523 4.37702 88.3888 4.26523 89.1605 4.26523C90.2892 4.26523 91.1385 4.49967 91.7098 4.97011C92.2796 5.43899 92.5653 6.12213 92.5653 7.01643V10.5719L92.5684 10.5688ZM88.7614 11.4242C89.4663 11.4242 90.0299 11.2395 90.4553 10.8715C90.8916 10.502 91.109 10.0331 91.109 9.46332V8.33924C90.8512 8.48518 90.4553 8.57989 89.9181 8.62492L88.9291 8.72584C87.7662 8.85936 87.1855 9.33445 87.1855 10.1511C87.1855 10.5641 87.3191 10.8839 87.5877 11.1075C87.8563 11.3202 88.2475 11.4258 88.7614 11.4258V11.4242ZM103.409 4.44844V13.2687C103.409 14.2531 103.146 14.9735 102.62 15.4315C102.095 15.9004 101.272 16.1364 100.154 16.1364H98.0755V14.9968H100.154C100.758 14.9968 101.205 14.8508 101.496 14.5605C101.786 14.281 101.932 13.8447 101.932 13.2532V11.0904C101.395 12.0406 100.524 12.5157 99.316 12.5157C98.4667 12.5157 97.8007 12.2751 97.3209 11.7953C96.852 11.3031 96.616 10.6216 96.616 9.749V6.22771C96.616 5.99327 96.571 5.8023 96.4825 5.65791C96.3924 5.5011 96.231 5.32876 95.9965 5.13779L96.9855 4.26523C97.3985 4.4888 97.6842 4.74653 97.841 5.03687C98.0087 5.31634 98.0925 5.7138 98.0925 6.22771V9.631C98.0925 10.1791 98.2323 10.6029 98.5117 10.9057C98.8021 11.196 99.2042 11.342 99.7197 11.342C100.324 11.342 100.827 11.1355 101.229 10.7209C101.631 10.2955 101.865 9.77073 101.934 9.14504V4.44999H103.409V4.44844ZM52.6201 16.2885H48.9141V15.0309H57.9346V16.2885H54.2115V26.7686H52.6186V16.2885H52.6201ZM65.1697 25.0079C65.1697 25.2424 65.2148 25.438 65.3033 25.5948C65.3933 25.7407 65.5548 25.9022 65.7892 26.0808L64.8002 26.9533C64.2304 26.663 63.8842 26.2484 63.76 25.7128C63.4914 26.0932 63.1172 26.3944 62.6359 26.618C62.167 26.8415 61.6236 26.9533 61.0088 26.9533C60.1704 26.9533 59.5214 26.7577 59.0634 26.3664C58.6054 25.9643 58.3756 25.3883 58.3756 24.6399C58.3756 23.8916 58.6442 23.2923 59.1798 22.9135C59.7155 22.5346 60.4545 22.2924 61.3938 22.1931L62.5334 22.0595C63.0147 22.0036 63.3268 21.9198 63.4728 21.808C63.6296 21.6854 63.7025 21.4789 63.6901 21.187C63.6451 20.7507 63.4665 20.4045 63.1529 20.1467C62.8517 19.889 62.3875 19.7617 61.7618 19.7617C61.3038 19.7617 60.9125 19.8393 60.588 19.9961C60.2635 20.1421 59.967 20.3812 59.6999 20.7165L58.6939 19.9961C58.9733 19.5707 59.3584 19.2524 59.8505 19.0397C60.3536 18.8162 60.9902 18.7044 61.7618 18.7044C62.8905 18.7044 63.7398 18.9388 64.3112 19.4093C64.881 19.8781 65.1666 20.5613 65.1666 21.4556V25.011L65.1697 25.0079ZM61.3628 25.8634C62.0677 25.8634 62.6312 25.6786 63.0567 25.3107C63.4929 24.9412 63.7103 24.4723 63.7103 23.9025V22.7784C63.4526 22.9243 63.0567 23.019 62.5195 23.0641L61.5305 23.165C60.3676 23.2985 59.7869 23.7736 59.7869 24.5903C59.7869 25.0033 59.9204 25.3231 60.189 25.5467C60.4576 25.7594 60.8489 25.8649 61.3628 25.8649V25.8634ZM70.2467 26.9533C69.8337 26.7297 69.5419 26.4782 69.3742 26.1988C69.2174 25.9084 69.1397 25.511 69.1397 25.0079V16.4221C69.1397 16.1876 69.0947 15.9966 69.0062 15.8523C68.9162 15.6954 68.7547 15.5278 68.5202 15.3492L69.4922 14.4767C69.9176 14.7002 70.2079 14.958 70.3647 15.2483C70.5324 15.5278 70.6162 15.919 70.6162 16.4221V25.0079C70.6162 25.2424 70.6551 25.438 70.7342 25.5948C70.8243 25.7407 70.9858 25.9022 71.2202 26.0808L70.2483 26.9533H70.2467ZM81.7499 26.7686H80.2408L79.5204 24.036C79.3977 23.6106 79.2192 23.2985 78.9832 23.0967C78.7596 22.8948 78.4025 22.7722 77.9103 22.7271L76.4183 24.2363V26.7686H74.9433V16.4391C74.9433 16.1938 74.8983 15.9982 74.8098 15.8523C74.7322 15.7063 74.5692 15.5386 74.3238 15.3492L75.3299 14.4767C75.732 14.7002 76.0115 14.958 76.1683 15.2483C76.336 15.5386 76.4199 15.9361 76.4199 16.4391V22.4259L79.907 18.8876H81.7344L78.9677 21.6714C79.5157 21.7832 79.9458 22.0238 80.2594 22.3918C80.573 22.7489 80.8292 23.297 81.0311 24.0344L81.7515 26.767L81.7499 26.7686ZM85.8068 17.3459C85.5491 17.3459 85.3255 17.2558 85.1361 17.0773C84.9576 16.8878 84.8675 16.6643 84.8675 16.4065C84.8675 16.1488 84.9576 15.9314 85.1361 15.7529C85.3255 15.5635 85.5491 15.4672 85.8068 15.4672C86.0646 15.4672 86.2819 15.5619 86.4605 15.7529C86.6499 15.9314 86.7462 16.1504 86.7462 16.4065C86.7462 16.6627 86.6515 16.8878 86.4605 17.0773C86.2819 17.2558 86.063 17.3459 85.8068 17.3459ZM86.1764 26.9533C85.7634 26.7297 85.4715 26.4782 85.3038 26.1988C85.147 25.9084 85.0694 25.511 85.0694 25.0079V18.8876H86.5443V25.0079C86.5443 25.2424 86.5894 25.438 86.6779 25.5948C86.7679 25.7407 86.9294 25.9022 87.1638 26.0808L86.1748 26.9533H86.1764ZM94.121 25.8137C94.579 25.8137 94.9703 25.747 95.2948 25.6119C95.6301 25.4783 95.9546 25.2594 96.2667 24.9582L97.1718 25.7796C96.8365 26.1817 96.4173 26.4782 95.9142 26.6676C95.4221 26.8571 94.8135 26.9533 94.0868 26.9533C92.9348 26.9533 92.0638 26.708 91.4707 26.2158C90.89 25.7128 90.5982 24.9691 90.5982 23.9863V21.4882C90.5982 20.628 90.8947 19.9511 91.4862 19.4589C92.0902 18.9559 92.9115 18.7044 93.9518 18.7044C94.992 18.7044 95.8521 18.9668 96.4328 19.4931C97.0259 20.0179 97.3209 20.7724 97.3209 21.7568C97.3209 22.4166 97.2029 22.8684 96.9685 23.1153C96.7449 23.3606 96.3086 23.4848 95.6612 23.4848H92.0731V24.0049C92.0731 24.6089 92.2408 25.0607 92.5762 25.3635C92.9115 25.6647 93.4254 25.8168 94.1194 25.8168L94.121 25.8137ZM93.9533 19.844C93.3602 19.844 92.8975 20.0008 92.5622 20.3129C92.2377 20.6265 92.0762 21.0503 92.0762 21.5875V22.4259H94.9439C95.2901 22.4259 95.5245 22.3701 95.6488 22.2583C95.7823 22.1465 95.8506 21.9338 95.8506 21.6217C95.8506 21.0628 95.6829 20.6265 95.3475 20.3144C95.0122 20.0008 94.548 19.8455 93.9564 19.8455L93.9533 19.844ZM103.558 26.9533C102.82 26.9533 102.222 26.8477 101.763 26.635C101.316 26.4115 100.903 26.0544 100.522 25.5622L101.462 24.7579C101.786 25.1383 102.098 25.4069 102.401 25.5622C102.715 25.719 103.1 25.7966 103.558 25.7966C104.776 25.7966 105.385 25.4116 105.385 24.6399C105.385 24.3946 105.318 24.199 105.183 24.0531C105.061 23.8963 104.837 23.7674 104.513 23.668C104.199 23.5562 103.724 23.4444 103.087 23.3327C102.305 23.1758 101.718 22.9073 101.327 22.5284C100.935 22.1372 100.74 21.6233 100.74 20.9851C100.74 20.2694 101.002 19.7105 101.528 19.3083C102.053 18.9062 102.775 18.7044 103.691 18.7044C105.044 18.7044 105.994 19.1344 106.542 19.9961L105.602 20.7849C105.334 20.4604 105.05 20.2259 104.747 20.08C104.457 19.934 104.104 19.8626 103.691 19.8626C103.199 19.8626 102.819 19.9635 102.552 20.1638C102.283 20.3657 102.149 20.6451 102.149 21.0022C102.149 21.3267 102.278 21.5782 102.535 21.7568C102.792 21.9245 103.199 22.0642 103.758 22.176C104.495 22.3437 105.078 22.5222 105.502 22.7132C105.927 22.8917 106.245 23.1386 106.458 23.4507C106.671 23.7519 106.776 24.1555 106.776 24.6586C106.776 26.1894 105.703 26.9564 103.556 26.9564L103.558 26.9533Z" fill="#FAFAFA"/>
<path d="M51.0551 35.9562C50.6282 35.9562 50.2431 35.8615 49.9 35.6706C49.56 35.4796 49.2914 35.2172 49.0927 34.8819C48.8986 34.5465 48.8008 34.1692 48.8008 33.7516C48.8008 33.3339 48.8986 32.9566 49.0927 32.6213C49.2914 32.2859 49.56 32.0235 49.9 31.8326C50.2431 31.6416 50.6282 31.5469 51.0551 31.5469C51.3703 31.5469 51.6591 31.5981 51.9246 31.7021C52.1901 31.8015 52.4152 31.9506 52.6015 32.1493L52.4028 32.3542C52.055 32.0111 51.6094 31.8388 51.0676 31.8388C50.7027 31.8388 50.372 31.9211 50.0739 32.0872C49.7758 32.2533 49.5414 32.4831 49.3721 32.7765C49.2029 33.0669 49.1175 33.3914 49.1175 33.7516C49.1175 34.1118 49.2029 34.4394 49.3721 34.7328C49.5414 35.0231 49.7758 35.2498 50.0739 35.4159C50.372 35.5821 50.7027 35.6644 51.0676 35.6644C51.6063 35.6644 52.0504 35.4905 52.4028 35.1427L52.6015 35.3476C52.4152 35.5464 52.187 35.697 51.9184 35.801C51.6529 35.905 51.3657 35.9562 51.0551 35.9562ZM57.6754 35.9252L56.6383 34.472C56.4846 34.4921 56.3448 34.503 56.216 34.503H54.9739V35.9252H54.6572V31.5779H56.216C56.7625 31.5779 57.191 31.7083 57.5015 31.9692C57.812 32.2254 57.9673 32.584 57.9673 33.0436C57.9673 33.3867 57.8788 33.677 57.7003 33.913C57.5264 34.1444 57.2764 34.3089 56.9488 34.4037L58.0356 35.9252H57.6754ZM56.216 34.2235C56.6802 34.2235 57.0342 34.1226 57.278 33.9192C57.5217 33.7127 57.6444 33.4209 57.6444 33.0436C57.6444 32.6663 57.5217 32.3775 57.278 32.1741C57.0342 31.9676 56.6802 31.8636 56.216 31.8636H54.9739V34.2235H56.216ZM62.8099 34.7017H60.2884L59.7357 35.9252H59.3941L61.3939 31.5779H61.7106L63.7104 35.9252H63.3688L62.8099 34.7017ZM62.6919 34.4347L61.5491 31.9257L60.4126 34.4347H62.6919ZM65.8095 31.8636V33.7205H68.1259V34.0062H65.8095V35.9252H65.4927V31.5779H68.3992V31.8636H65.8095ZM71.2668 31.8636H69.7018V31.5779H73.1486V31.8636H71.5836V35.9252H71.2668V31.8636ZM78.6588 35.9562C78.3405 35.9562 78.0362 35.9019 77.7458 35.7948C77.4601 35.683 77.2366 35.5402 77.0751 35.3663L77.2179 35.1303C77.3717 35.2917 77.5766 35.4237 77.8328 35.5277C78.0936 35.6271 78.3669 35.6768 78.6525 35.6768C79.0671 35.6768 79.3792 35.5976 79.5903 35.4408C79.8015 35.284 79.907 35.079 79.907 34.826C79.907 34.6319 79.8512 34.4766 79.7394 34.3602C79.6276 34.2437 79.4894 34.1552 79.3233 34.0931C79.1571 34.031 78.9336 33.9674 78.6525 33.9006C78.3343 33.8214 78.0765 33.7454 77.8825 33.6708C77.6915 33.5963 77.5285 33.483 77.3918 33.3293C77.2599 33.1724 77.1931 32.9628 77.1931 32.702C77.1931 32.4909 77.249 32.2983 77.3608 32.1244C77.4726 31.9459 77.6418 31.8062 77.87 31.7021C78.1014 31.5981 78.3902 31.5469 78.7333 31.5469C78.9739 31.5469 79.2099 31.5826 79.4413 31.6525C79.6726 31.7223 79.8744 31.8186 80.0437 31.9381L79.9257 32.1928C79.7518 32.0732 79.5593 31.9816 79.3481 31.9195C79.1416 31.8574 78.9367 31.8263 78.7333 31.8263C78.3312 31.8263 78.0268 31.9071 77.8204 32.0685C77.6139 32.23 77.5098 32.4396 77.5098 32.6958C77.5098 32.8899 77.5657 33.0451 77.6775 33.1616C77.7893 33.278 77.9275 33.3665 78.0936 33.4286C78.2597 33.4907 78.4849 33.5575 78.7705 33.6274C79.0888 33.7065 79.3435 33.7826 79.5344 33.8571C79.7254 33.9317 79.8869 34.045 80.0188 34.1987C80.1555 34.3478 80.2238 34.5511 80.2238 34.8073C80.2238 35.0185 80.1663 35.211 80.0499 35.3849C79.9381 35.5588 79.7642 35.697 79.5282 35.801C79.2922 35.905 79.0019 35.9562 78.6588 35.9562ZM84.1332 35.9562C83.7062 35.9562 83.3212 35.8615 82.9781 35.6706C82.6381 35.4796 82.3695 35.2172 82.1707 34.8819C81.9767 34.5465 81.8788 34.1692 81.8788 33.7516C81.8788 33.3339 81.9767 32.9566 82.1707 32.6213C82.3695 32.2859 82.6381 32.0235 82.9781 31.8326C83.3212 31.6416 83.7062 31.5469 84.1332 31.5469C84.4484 31.5469 84.7372 31.5981 85.0027 31.7021C85.2682 31.8015 85.4933 31.9506 85.6796 32.1493L85.4809 32.3542C85.1331 32.0111 84.6875 31.8388 84.1456 31.8388C83.7808 31.8388 83.4501 31.9211 83.152 32.0872C82.8539 32.2533 82.6194 32.4831 82.4502 32.7765C82.281 33.0669 82.1956 33.3914 82.1956 33.7516C82.1956 34.1118 82.281 34.4394 82.4502 34.7328C82.6194 35.0231 82.8539 35.2498 83.152 35.4159C83.4501 35.5821 83.7808 35.6644 84.1456 35.6644C84.6844 35.6644 85.1284 35.4905 85.4809 35.1427L85.6796 35.3476C85.4933 35.5464 85.265 35.697 84.9965 35.801C84.731 35.905 84.4437 35.9562 84.1332 35.9562ZM91.2736 31.5779V35.9252H90.9569V33.8571H88.0504V35.9252H87.7337V31.5779H88.0504V33.5777H90.9569V31.5779H91.2736ZM95.6302 35.9562C95.2032 35.9562 94.8182 35.8615 94.475 35.6706C94.1319 35.4765 93.8602 35.211 93.6615 34.8756C93.4674 34.5403 93.3696 34.1661 93.3696 33.7516C93.3696 33.337 93.4674 32.9628 93.6615 32.6275C93.8602 32.2921 94.1319 32.0297 94.475 31.8388C94.8182 31.6447 95.2032 31.5469 95.6302 31.5469C96.0571 31.5469 96.4422 31.6416 96.7853 31.8326C97.1284 32.0235 97.3986 32.2859 97.5927 32.6213C97.7914 32.9566 97.8908 33.3339 97.8908 33.7516C97.8908 34.1692 97.7914 34.5465 97.5927 34.8819C97.3986 35.2172 97.1284 35.4796 96.7853 35.6706C96.4422 35.8615 96.0571 35.9562 95.6302 35.9562ZM95.6302 35.6644C95.995 35.6644 96.3242 35.5821 96.6176 35.4159C96.9111 35.2498 97.144 35.0231 97.3132 34.7328C97.4824 34.4394 97.5678 34.1118 97.5678 33.7516C97.5678 33.3914 97.4824 33.0669 97.3132 32.7765C97.144 32.4831 96.9111 32.2533 96.6176 32.0872C96.3242 31.9211 95.995 31.8388 95.6302 31.8388C95.2653 31.8388 94.9346 31.9211 94.6365 32.0872C94.3431 32.2533 94.1102 32.4831 93.941 32.7765C93.7717 33.0669 93.6863 33.3914 93.6863 33.7516C93.6863 34.1118 93.7717 34.4394 93.941 34.7328C94.1102 35.0231 94.3431 35.2498 94.6365 35.4159C94.9346 35.5821 95.2653 35.6644 95.6302 35.6644ZM101.827 35.9562C101.4 35.9562 101.015 35.8615 100.671 35.6706C100.328 35.4765 100.057 35.211 99.8579 34.8756C99.6638 34.5403 99.566 34.1661 99.566 33.7516C99.566 33.337 99.6638 32.9628 99.8579 32.6275C100.057 32.2921 100.328 32.0297 100.671 31.8388C101.015 31.6447 101.4 31.5469 101.827 31.5469C102.254 31.5469 102.639 31.6416 102.982 31.8326C103.325 32.0235 103.595 32.2859 103.789 32.6213C103.988 32.9566 104.087 33.3339 104.087 33.7516C104.087 34.1692 103.988 34.5465 103.789 34.8819C103.595 35.2172 103.325 35.4796 102.982 35.6706C102.639 35.8615 102.254 35.9562 101.827 35.9562ZM101.827 35.6644C102.191 35.6644 102.521 35.5821 102.814 35.4159C103.107 35.2498 103.34 35.0231 103.51 34.7328C103.679 34.4394 103.764 34.1118 103.764 33.7516C103.764 33.3914 103.679 33.0669 103.51 32.7765C103.34 32.4831 103.107 32.2533 102.814 32.0872C102.521 31.9211 102.191 31.8388 101.827 31.8388C101.462 31.8388 101.131 31.9211 100.833 32.0872C100.539 32.2533 100.307 32.4831 100.137 32.7765C99.9681 33.0669 99.8827 33.3914 99.8827 33.7516C99.8827 34.1118 99.9681 34.4394 100.137 34.7328C100.307 35.0231 100.539 35.2498 100.833 35.4159C101.131 35.5821 101.462 35.6644 101.827 35.6644ZM106.18 31.5779H106.497V35.6395H109V35.9252H106.18V31.5779Z" fill="#FAFAFA"/>
<path fill-rule="evenodd" clip-rule="evenodd" d="M4.65779 11.6406C2.08514 11.6406 0 13.7258 0 16.2984V29.8433C0 32.4159 2.08514 34.501 4.65779 34.501H22.4707C25.0434 34.501 27.1285 32.4159 27.1285 29.8433V16.2984C27.1285 13.7258 25.0434 11.6406 22.4707 11.6406H4.65779ZM10.685 28.3124L19.0193 23.0708L10.685 17.8293C9.85743 17.3092 8.78148 17.9038 8.78148 18.8804V27.2597C8.78148 28.2363 9.85743 28.831 10.685 28.3109V28.3124Z" fill="url(#paint0_linear_6530_19283)"/>
<path d="M33.3484 14.7397L19.0195 23.102L33.3515 31.4162C34.5936 32.1366 36.1493 31.2407 36.1493 29.8046V16.3498C36.1493 14.9121 34.589 14.0162 33.3469 14.7413L33.3484 14.7397Z" fill="url(#paint1_linear_6530_19283)"/>
<path d="M8.71534 10.9307C11.7165 10.9307 14.1494 8.49775 14.1494 5.49659C14.1494 2.49542 11.7165 0.0625 8.71534 0.0625C5.71417 0.0625 3.28125 2.49542 3.28125 5.49659C3.28125 8.49775 5.71417 10.9307 8.71534 10.9307Z" fill="#FAFAFA"/>
<path d="M8.71534 10.9307C11.7165 10.9307 14.1494 8.49775 14.1494 5.49659C14.1494 2.49542 11.7165 0.0625 8.71534 0.0625C5.71417 0.0625 3.28125 2.49542 3.28125 5.49659C3.28125 8.49775 5.71417 10.9307 8.71534 10.9307Z" fill="url(#paint2_linear_6530_19283)"/>
<path d="M18.8063 10.9329C21.0357 10.9329 22.843 9.12556 22.843 6.89612C22.843 4.66669 21.0357 2.85938 18.8063 2.85938C16.5768 2.85938 14.7695 4.66669 14.7695 6.89612C14.7695 9.12556 16.5768 10.9329 18.8063 10.9329Z" fill="#FAFAFA"/>
<path d="M18.8063 10.9329C21.0357 10.9329 22.843 9.12556 22.843 6.89612C22.843 4.66669 21.0357 2.85938 18.8063 2.85938C16.5768 2.85938 14.7695 4.66669 14.7695 6.89612C14.7695 9.12556 16.5768 10.9329 18.8063 10.9329Z" fill="url(#paint3_linear_6530_19283)"/>
</g>
<defs>
<linearGradient id="paint0_linear_6530_19283" x1="0.964162" y1="11.7866" x2="24.3121" y2="32.6969" gradientUnits="userSpaceOnUse">
<stop offset="0.01" stop-color="#1ED760"/>
<stop offset="1" stop-color="#0FA7FD"/>
</linearGradient>
<linearGradient id="paint1_linear_6530_19283" x1="19.6283" y1="14.5941" x2="36.5954" y2="27.3571" gradientUnits="userSpaceOnUse">
<stop offset="0.01" stop-color="#1ED760"/>
<stop offset="1" stop-color="#0FA7FD"/>
</linearGradient>
<linearGradient id="paint2_linear_6530_19283" x1="2.92105" y1="1.12292" x2="13.6604" y2="9.22903" gradientUnits="userSpaceOnUse">
<stop offset="0.01" stop-color="#1ED760"/>
<stop offset="1" stop-color="#0FA7FD"/>
</linearGradient>
<linearGradient id="paint3_linear_6530_19283" x1="14.5009" y1="3.64809" x2="22.4797" y2="9.66906" gradientUnits="userSpaceOnUse">
<stop offset="0.01" stop-color="#1ED760"/>
<stop offset="1" stop-color="#0FA7FD"/>
</linearGradient>
<clipPath id="clip0_6530_19283">
<rect width="109" height="35.9178" fill="white" transform="translate(0 0.0390625)"/>
</clipPath>
</defs>
</svg>
