<svg width="20" height="20" viewBox="0 0 20 20" fill="none" xmlns="http://www.w3.org/2000/svg">
<path d="M18.1726 8.36531H17.5013V8.33073H10.0013V11.6641H14.7109C14.0238 13.6045 12.1776 14.9974 10.0013 14.9974C7.24005 14.9974 5.0013 12.7586 5.0013 9.9974C5.0013 7.23615 7.24005 4.9974 10.0013 4.9974C11.2759 4.9974 12.4355 5.47823 13.3184 6.26365L15.6755 3.90656C14.1871 2.51948 12.1963 1.66406 10.0013 1.66406C5.39922 1.66406 1.66797 5.39531 1.66797 9.9974C1.66797 14.5995 5.39922 18.3307 10.0013 18.3307C14.6034 18.3307 18.3346 14.5995 18.3346 9.9974C18.3346 9.43865 18.2771 8.89323 18.1726 8.36531Z" fill="#FFC107"/>
<path d="M2.62891 6.11865L5.36682 8.12656C6.10766 6.2924 7.90182 4.9974 10.0014 4.9974C11.276 4.9974 12.4356 5.47823 13.3185 6.26365L15.6756 3.90656C14.1872 2.51948 12.1964 1.66406 10.0014 1.66406C6.80057 1.66406 4.02474 3.47115 2.62891 6.11865Z" fill="#FF3D00"/>
<path d="M10.0008 18.3317C12.1533 18.3317 14.1091 17.5079 15.5879 16.1683L13.0087 13.9858C12.1439 14.6435 11.0872 14.9992 10.0008 14.9983C7.83328 14.9983 5.99286 13.6163 5.29953 11.6875L2.58203 13.7812C3.9612 16.48 6.76203 18.3317 10.0008 18.3317Z" fill="#4CAF50"/>
<path d="M18.1712 8.37052H17.5V8.33594H10V11.6693H14.7096C14.3809 12.5928 13.7889 13.3998 13.0067 13.9905L13.0079 13.9897L15.5871 16.1722C15.4046 16.338 18.3333 14.1693 18.3333 10.0026C18.3333 9.44385 18.2758 8.89844 18.1712 8.37052Z" fill="#1976D2"/>
</svg>
