<svg width="18" height="18" viewBox="0 0 18 18" fill="none" xmlns="http://www.w3.org/2000/svg">
<circle cx="5.16667" cy="5.25" r="1.25" stroke="white" stroke-width="1.5" stroke-linecap="round" stroke-linejoin="round"/>
<path d="M1 9.0026C1 5.27065 1 3.40468 2.15937 2.24531C3.31874 1.08594 5.18471 1.08594 8.91667 1.08594C12.6486 1.08594 14.5146 1.08594 15.674 2.24531C16.8333 3.40468 16.8333 5.27065 16.8333 9.0026C16.8333 12.7346 16.8333 14.6005 15.674 15.7599C14.5146 16.9193 12.6486 16.9193 8.91667 16.9193C5.18471 16.9193 3.31874 16.9193 2.15937 15.7599C1 14.6005 1 12.7346 1 9.0026Z" stroke="white" stroke-width="1.5"/>
<path d="M3.08333 16.5C6.72704 12.1458 10.8117 6.40333 16.8312 10.2853" stroke="white" stroke-width="1.5"/>
</svg>
