<svg width="32" height="33" viewBox="0 0 32 33" fill="none" xmlns="http://www.w3.org/2000/svg">
<rect y="0.5" width="32" height="32" rx="8" fill="#3B3B4D"/>
<path d="M21.8494 20.4922C22.3489 20.4922 22.7462 20.1778 23.103 19.7383C23.8333 18.8385 22.6342 18.1194 22.1769 17.7673C21.712 17.4093 21.1929 17.2065 20.6667 17.1589M20 15.8255C20.9205 15.8255 21.6667 15.0793 21.6667 14.1589C21.6667 13.2384 20.9205 12.4922 20 12.4922" stroke="#FAFAFA" stroke-width="0.96" stroke-linecap="round"/>
<path d="M10.1519 20.4922C9.65241 20.4922 9.25508 20.1778 8.89833 19.7383C8.16803 18.8385 9.36708 18.1194 9.8244 17.7673C10.2893 17.4093 10.8084 17.2065 11.3346 17.1589M11.668 15.8255C10.7475 15.8255 10.0013 15.0793 10.0013 14.1589C10.0013 13.2384 10.7475 12.4922 11.668 12.4922" stroke="#FAFAFA" stroke-width="0.96" stroke-linecap="round"/>
<path d="M13.3905 18.5767C12.7093 18.9979 10.9233 19.858 12.0111 20.9342C12.5425 21.4599 13.1343 21.8359 13.8784 21.8359H18.1242C18.8683 21.8359 19.4601 21.4599 19.9915 20.9342C21.0793 19.858 19.2933 18.9979 18.6121 18.5767C17.0147 17.589 14.9879 17.589 13.3905 18.5767Z" stroke="#FAFAFA" stroke-width="0.96" stroke-linecap="round" stroke-linejoin="round"/>
<path d="M18.3346 13.4974C18.3346 14.7861 17.29 15.8307 16.0013 15.8307C14.7126 15.8307 13.668 14.7861 13.668 13.4974C13.668 12.2087 14.7126 11.1641 16.0013 11.1641C17.29 11.1641 18.3346 12.2087 18.3346 13.4974Z" stroke="#FAFAFA" stroke-width="0.96"/>
</svg>
