<svg width="14" height="14" viewBox="0 0 14 14" fill="none" xmlns="http://www.w3.org/2000/svg">
<path d="M4.37677 2.33594C4.36579 2.11924 4.40525 1.95185 4.51255 1.81094C4.77906 1.46094 5.32196 1.46094 6.40775 1.46094H7.59225C8.67804 1.46094 9.22094 1.46094 9.48745 1.81094C9.59475 1.95185 9.63421 2.11924 9.62323 2.33594" stroke="#F5F5F6" stroke-width="1.3" stroke-linecap="round" stroke-linejoin="round"/>
<path d="M2.91797 4.67187C2.94004 4.52043 2.99076 4.3895 3.07528 4.27189C3.41668 3.79688 4.12436 3.79688 5.53972 3.79688H8.46288C9.87824 3.79688 10.5859 3.79688 10.9273 4.27189C11.0118 4.3895 11.0626 4.52043 11.0846 4.67187" stroke="#F5F5F6" stroke-width="1.3" stroke-linecap="round" stroke-linejoin="round"/>
<path d="M2.22689 9.16581L2.64624 10.5093C3.16863 12.183 3.61509 12.5417 5.37266 12.5417H8.62734C10.3849 12.5417 10.8314 12.183 11.3538 10.5093L11.7731 9.16581C12.2069 7.77599 12.4238 7.08108 12.0809 6.60304C11.738 6.125 11.0227 6.125 9.59197 6.125H4.40803C2.97734 6.125 2.26199 6.125 1.9191 6.60304C1.57621 7.08108 1.7931 7.77599 2.22689 9.16581Z" stroke="#F5F5F6" stroke-width="1.3" stroke-linecap="round" stroke-linejoin="round"/>
</svg>
