<svg width="21" height="20" viewBox="0 0 21 20" fill="none" xmlns="http://www.w3.org/2000/svg">
<g clip-path="url(#clip0_6206_33578)">
<path d="M10.5 10C13.2575 10 15.5 7.7575 15.5 5C15.5 2.2425 13.2575 0 10.5 0C7.7425 0 5.5 2.2425 5.5 5C5.5 7.7575 7.7425 10 10.5 10ZM10.5 1.66667C12.3383 1.66667 13.8333 3.16167 13.8333 5C13.8333 6.83833 12.3383 8.33333 10.5 8.33333C8.66167 8.33333 7.16667 6.83833 7.16667 5C7.16667 3.16167 8.66167 1.66667 10.5 1.66667ZM18 19.1667C18 19.6267 17.6275 20 17.1667 20C16.7058 20 16.3333 19.6267 16.3333 19.1667C16.3333 16.6508 14.7292 14.5083 12.4925 13.6917L11.2283 15.5883L12.1392 18.9133C12.2917 19.4683 11.8017 20.0008 11.1383 20.0008H9.86167C9.19833 20.0008 8.70917 19.4683 8.86083 18.9133L9.77167 15.5883L8.5075 13.6917C6.27083 14.5083 4.66667 16.6508 4.66667 19.1675C4.66667 19.6275 4.29333 20.0008 3.83333 20.0008C3.37333 20.0008 3 19.6275 3 19.1675C3 15.0325 6.365 11.6675 10.5 11.6675C14.635 11.6675 18 15.0317 18 19.1667Z" fill="#FAFAFA"/>
</g>
<defs>
<clipPath id="clip0_6206_33578">
<rect width="20" height="20" fill="white" transform="translate(0.5)"/>
</clipPath>
</defs>
</svg>
