<svg width="16" height="16" viewBox="0 0 16 16" fill="none" xmlns="http://www.w3.org/2000/svg">
<path d="M8 11.0052V9.67188" stroke="#DEDEE1" stroke-width="1.5" stroke-linecap="round"/>
<path d="M2.84651 12.5632C2.99643 13.6767 3.91872 14.549 5.04107 14.6006C5.98548 14.644 6.94484 14.6667 8.0013 14.6667C9.05777 14.6667 10.0171 14.644 10.9615 14.6006C12.0839 14.549 13.0062 13.6767 13.1561 12.5632C13.2539 11.8365 13.3346 11.0917 13.3346 10.3333C13.3346 9.57492 13.2539 8.83021 13.1561 8.1035C13.0062 6.99001 12.0839 6.11766 10.9615 6.06606C10.0171 6.02265 9.05777 6 8.0013 6C6.94484 6 5.98548 6.02265 5.04107 6.06606C3.91872 6.11766 2.99643 6.99001 2.84651 8.1035C2.74866 8.83021 2.66797 9.57492 2.66797 10.3333C2.66797 11.0917 2.74866 11.8365 2.84651 12.5632Z" stroke="#DEDEE1" stroke-width="1.5"/>
<path d="M5 6.0026V4.33594C5 2.67908 6.34315 1.33594 8 1.33594C9.65685 1.33594 11 2.67908 11 4.33594V6.0026" stroke="#DEDEE1" stroke-width="1.5" stroke-linecap="round" stroke-linejoin="round"/>
</svg>
