<svg width="21" height="20" viewBox="0 0 21 20" fill="none" xmlns="http://www.w3.org/2000/svg">
<g clip-path="url(#clip0_6206_34095)">
<path d="M19.8575 0.639753C19.4637 0.247924 18.9361 0.0197804 18.3809 0.00122706C17.8257 -0.0173263 17.2841 0.175088 16.865 0.539753L5.06 10.9414C3.11417 11.3081 0.5 12.3923 0.5 14.6639C0.501544 16.0779 1.06394 17.4336 2.0638 18.4335C3.06366 19.4333 4.41932 19.9957 5.83333 19.9973C8.10417 19.9973 9.18917 17.3839 9.55583 15.4381L19.96 3.62892C20.3239 3.21 20.5157 2.66878 20.4967 2.11418C20.4776 1.55958 20.2493 1.03276 19.8575 0.639753ZM8.95083 13.6031L6.89417 11.5464L8.565 10.0739L10.4233 11.9323L8.95083 13.6031ZM5.83333 18.3306C4.86121 18.3295 3.92922 17.9428 3.24183 17.2554C2.55443 16.568 2.16777 15.636 2.16667 14.6639C2.16667 13.4073 4.36583 12.7581 5.54083 12.5498L7.9475 14.9556C7.73833 16.1314 7.09 18.3306 5.83333 18.3306ZM18.7075 2.53059L11.5275 10.6789L9.8175 8.96975L17.9633 1.79225C18.0636 1.70617 18.1927 1.66103 18.3248 1.6658C18.4569 1.67057 18.5823 1.72492 18.6761 1.81801C18.77 1.9111 18.8253 2.03612 18.8311 2.16817C18.8369 2.30021 18.7928 2.42961 18.7075 2.53059Z" fill="#FAFAFA"/>
</g>
<defs>
<clipPath id="clip0_6206_34095">
<rect width="20" height="20" fill="white" transform="translate(0.5)"/>
</clipPath>
</defs>
</svg>
