<svg width="16" height="16" viewBox="0 0 16 16" fill="none" xmlns="http://www.w3.org/2000/svg">
<g clip-path="url(#clip0_6626_53806)">
<path d="M5.19191 12.6693C4.97435 12.5813 4.8542 12.5388 4.78698 12.547C4.70438 12.5571 4.58452 12.645 4.34481 12.821C3.92217 13.1311 3.38972 13.3539 2.60011 13.3348C2.20083 13.3251 2.0012 13.3203 1.91182 13.1686C1.82245 13.017 1.93376 12.807 2.15638 12.3872C2.46514 11.8049 2.66077 11.1382 2.36434 10.6041C1.85381 9.84116 1.42016 8.93761 1.35679 7.96176C1.32274 7.43742 1.32274 6.89442 1.35679 6.37008C1.53078 3.6907 3.64529 1.55644 6.29987 1.38083C7.20366 1.32104 8.1492 1.32091 9.05484 1.38083C11.6981 1.5557 13.8059 3.67259 13.9956 6.33594" stroke="white" stroke-width="1.2" stroke-linecap="round" stroke-linejoin="round"/>
<path d="M9.79426 14.434C8.12106 14.3267 6.78827 13.0224 6.6786 11.385C6.65714 11.0646 6.65714 10.7328 6.6786 10.4124C6.78827 8.77496 8.12106 7.47069 9.79426 7.36337C10.3651 7.32676 10.9611 7.32683 11.5307 7.36337C13.204 7.47069 14.5367 8.77496 14.6464 10.4124C14.6679 10.7328 14.6679 11.0646 14.6464 11.385C14.6065 11.9814 14.3331 12.5336 14.0113 12.9998C13.8245 13.3262 13.9478 13.7336 14.1424 14.0895C14.2827 14.3461 14.3529 14.4744 14.2966 14.567C14.2402 14.6597 14.1144 14.6627 13.8627 14.6686C13.365 14.6803 13.0294 14.5441 12.763 14.3546C12.6119 14.2471 12.5364 14.1933 12.4843 14.1871C12.4323 14.1809 12.3298 14.2217 12.1249 14.3031C11.9407 14.3763 11.7269 14.4215 11.5307 14.434C10.9611 14.4706 10.3651 14.4706 9.79426 14.434Z" stroke="white" stroke-width="1.2" stroke-linejoin="round"/>
</g>
<defs>
<clipPath id="clip0_6626_53806">
<rect width="16" height="16" fill="white"/>
</clipPath>
</defs>
</svg>
