<svg width="20" height="20" viewBox="0 0 20 20" fill="none" xmlns="http://www.w3.org/2000/svg">
<g clip-path="url(#clip0_6182_32869)">
<path d="M10 0C4.20583 0 0 2.1025 0 5V16.29C0 17.6017 0.879167 18.8375 2.47583 19.7692C2.73833 19.9225 3.0325 19.9983 3.32667 19.9983C3.61667 19.9983 3.90667 19.9233 4.165 19.775C4.68667 19.475 4.99917 18.9358 4.99917 18.3342V9.43583C4.99917 8.5025 4.47583 7.65 3.63333 7.21333C2.38333 6.56583 1.66667 5.75917 1.66667 5C1.66667 3.39 5.015 1.66667 10 1.66667C14.985 1.66667 18.3333 3.39 18.3333 5C18.3333 5.75917 17.6167 6.56583 16.3667 7.21333C15.5242 7.65 15.0008 8.5025 15.0008 9.43583V18.3342C15.0008 18.9367 15.3133 19.475 15.835 19.775C16.0942 19.9233 16.3833 19.9983 16.6733 19.9983C16.9675 19.9983 17.2625 19.9217 17.5242 19.7692C19.1208 18.8375 20 17.6017 20 16.29V5C20 2.1025 15.7942 0 10 0ZM2.86667 8.69333C3.15417 8.84333 3.33333 9.1275 3.33333 9.43667L3.31583 18.3292C2.7 17.97 1.66667 17.2275 1.66667 16.2908V7.935C2.01583 8.20667 2.41667 8.46083 2.86667 8.69333ZM18.3333 16.29C18.3333 17.2267 17.3 17.97 16.6667 18.3342V9.43583C16.6667 9.1275 16.845 8.8425 17.1333 8.6925C17.5842 8.46 17.9842 8.205 18.3333 7.93333V16.29ZM10 8.33333C8.84917 8.33333 7.91667 7.40083 7.91667 6.25C7.91667 5.09917 8.84917 4.16667 10 4.16667C11.1508 4.16667 12.0833 5.09917 12.0833 6.25C12.0833 7.40083 11.1508 8.33333 10 8.33333ZM10 9.16667C8.16167 9.16667 6.66667 10.6617 6.66667 12.5V14.1667C6.66667 14.9025 6.9925 15.5583 7.5 16.0167V19.1667C7.5 19.6275 7.87333 20 8.33333 20C8.79333 20 9.16667 19.6275 9.16667 19.1667V16.6667H10.8333V19.1667C10.8333 19.6275 11.2067 20 11.6667 20C12.1267 20 12.5 19.6275 12.5 19.1667V16.0167C13.0075 15.5592 13.3333 14.9025 13.3333 14.1667V12.5C13.3333 10.6617 11.8383 9.16667 10 9.16667ZM9.16667 15C8.7075 15 8.33333 14.6267 8.33333 14.1667V12.5C8.33333 11.5808 9.08083 10.8333 10 10.8333C10.9192 10.8333 11.6667 11.5808 11.6667 12.5V14.1667C11.6667 14.6267 11.2925 15 10.8333 15H9.16667Z" fill="#FAFAFA"/>
</g>
<defs>
<clipPath id="clip0_6182_32869">
<rect width="20" height="20" fill="white"/>
</clipPath>
</defs>
</svg>
