<svg width="44" height="44" viewBox="0 0 44 44" fill="none" xmlns="http://www.w3.org/2000/svg">
<rect width="44" height="44" rx="12" fill="#1C1C31"/>
<path d="M14.1109 23.9924C13.9337 25.12 14.7259 25.9026 15.696 26.2926C19.4149 27.7879 24.5903 27.7879 28.3092 26.2926C29.2793 25.9026 30.0715 25.12 29.8943 23.9924C29.7854 23.2995 29.2469 22.7225 28.8479 22.1591C28.3253 21.412 28.2734 20.5972 28.2733 19.7302C28.2733 16.38 25.4658 13.6641 22.0026 13.6641C18.5394 13.6641 15.7319 16.38 15.7319 19.7302C15.7318 20.5972 15.6799 21.412 15.1573 22.1591C14.7583 22.7225 14.2198 23.2995 14.1109 23.9924Z" stroke="white" stroke-width="1.5" stroke-linecap="round" stroke-linejoin="round"/>
<path d="M19.5 29.4141C20.1634 29.9323 21.0396 30.2474 22 30.2474C22.9604 30.2474 23.8366 29.9323 24.5 29.4141" stroke="white" stroke-width="1.5" stroke-linecap="round" stroke-linejoin="round"/>
</svg>
