<svg width="49" height="48" viewBox="0 0 49 48" fill="none" xmlns="http://www.w3.org/2000/svg">
<g clip-path="url(#clip0_5968_65493)">
<rect opacity="0.15" x="0.5" width="48" height="48" rx="12" fill="#1ED760"/>
<path d="M27.0039 32.125C27.0039 32.125 28.2539 32.125 29.5039 34.625C29.5039 34.625 33.4745 28.375 37.0039 27.125" stroke="#1ED760" stroke-width="1.875" stroke-linecap="round" stroke-linejoin="round"/>
<path d="M16.3789 23.375H16.3677" stroke="#1ED760" stroke-width="2.5" stroke-linecap="round" stroke-linejoin="round"/>
<path d="M23.2539 33.375H22.6289C17.9307 33.375 15.5816 33.375 14.0132 32.1364C13.7624 31.9383 13.5304 31.72 13.3199 31.4839C12.0039 30.0078 12.0039 27.7969 12.0039 23.375C12.0039 18.9531 12.0039 16.7422 13.3199 15.2661C13.5304 15.03 13.7624 14.8117 14.0132 14.6136C15.5816 13.375 17.9307 13.375 22.6289 13.375H26.3789C31.0771 13.375 33.4262 13.375 34.9946 14.6136C35.2454 14.8117 35.4774 15.03 35.6879 15.2661C36.8736 16.596 36.991 18.5225 37.0026 22.125V22.75" stroke="#1ED760" stroke-width="1.875" stroke-linecap="round" stroke-linejoin="round"/>
<path d="M27.6289 23.375C27.6289 25.1009 26.2298 26.5 24.5039 26.5C22.778 26.5 21.3789 25.1009 21.3789 23.375C21.3789 21.6491 22.778 20.25 24.5039 20.25C26.2298 20.25 27.6289 21.6491 27.6289 23.375Z" stroke="#1ED760" stroke-width="1.875"/>
</g>
<defs>
<clipPath id="clip0_5968_65493">
<rect x="0.5" width="48" height="48" rx="12" fill="white"/>
</clipPath>
</defs>
</svg>
