<svg width="20" height="20" viewBox="0 0 20 20" fill="none" xmlns="http://www.w3.org/2000/svg">
<g clip-path="url(#clip0_6325_7313)">
<path d="M15.0371 4.6086C14.1221 3.42027 13.1763 2.19194 12.5071 0.862772C12.2246 0.300272 11.663 -0.0388952 11.0471 -0.00556182C10.453 0.0286048 9.95214 0.407771 9.73964 0.984438C9.45464 1.76194 9.16714 3.18277 9.16714 4.60527C9.16714 6.44611 9.74047 7.68944 10.2005 8.68944C10.5913 9.53694 10.8996 10.2061 10.8221 11.0619C10.7471 11.8778 10.0338 12.5078 9.13297 12.5011C6.9788 12.4769 6.43047 9.7486 6.3513 7.46527C6.32464 6.71777 5.82047 6.0861 5.09714 5.89444C4.3738 5.7036 3.62214 6.00444 3.22964 6.6411C2.22297 8.27527 1.66797 10.0603 1.66797 11.6669C1.66797 16.2619 5.43714 20.0003 10.0063 20.0003C14.5988 19.9728 18.3346 16.2336 18.3346 11.6811C18.3813 8.95111 16.6813 6.7436 15.0371 4.6086ZM9.99547 18.3344C6.34547 18.3344 3.3338 15.3436 3.3338 11.6678C3.3338 10.3844 3.81297 8.87111 4.68547 7.52361C4.83464 11.7769 6.40714 14.1369 9.11464 14.1678H9.1538C10.8713 14.1678 12.3296 12.8778 12.4821 11.2144C12.6005 9.91444 12.1505 8.93777 11.7146 7.99277C11.2813 7.05277 10.8338 6.0811 10.8338 4.6061C10.8338 3.64527 10.9971 2.61944 11.1863 1.93444C11.9055 3.27277 12.8255 4.46777 13.7171 5.62694C15.253 7.62277 16.7038 9.50694 16.668 11.6686C16.668 15.3228 13.6755 18.3136 9.9963 18.3353L9.99547 18.3344Z" fill="#1ED760"/>
</g>
<defs>
<clipPath id="clip0_6325_7313">
<rect width="20" height="20" fill="white"/>
</clipPath>
</defs>
</svg>
