<svg width="24" height="24" viewBox="0 0 24 24" fill="none" xmlns="http://www.w3.org/2000/svg">
<g clip-path="url(#clip0_7623_8001)">
<path d="M18.043 5.53189C16.945 4.10589 15.81 2.63189 15.007 1.03689C14.668 0.361888 13.994 -0.0451117 13.255 -0.00511168C12.542 0.0358883 11.941 0.490888 11.686 1.18289C11.344 2.11589 10.999 3.82089 10.999 5.52789C10.999 7.73689 11.687 9.22889 12.239 10.4289C12.708 11.4459 13.078 12.2489 12.985 13.2759C12.895 14.2549 12.039 15.0109 10.958 15.0029C8.373 14.9739 7.715 11.6999 7.62 8.95989C7.588 8.06289 6.983 7.30489 6.115 7.07489C5.247 6.84589 4.345 7.20689 3.874 7.97089C2.666 9.93189 2 12.0739 2 14.0019C2 19.5159 6.523 24.0019 12.006 24.0019C17.517 23.9689 22 19.4819 22 14.0189C22.056 10.7429 20.016 8.09389 18.043 5.53189ZM11.993 22.0029C7.613 22.0029 3.999 18.4139 3.999 14.0029C3.999 12.4629 4.574 10.6469 5.621 9.02989C5.8 14.1339 7.687 16.9659 10.936 17.0029H10.983C13.044 17.0029 14.794 15.4549 14.977 13.4589C15.119 11.8989 14.579 10.7269 14.056 9.59289C13.536 8.46489 12.999 7.29889 12.999 5.52889C12.999 4.37589 13.195 3.14489 13.422 2.32289C14.285 3.92889 15.389 5.36289 16.459 6.75389C18.302 9.14889 20.043 11.4099 20 14.0039C20 18.3889 16.409 21.9779 11.994 22.0039L11.993 22.0029Z" fill="#1ED760"/>
</g>
<defs>
<clipPath id="clip0_7623_8001">
<rect width="24" height="24" fill="white"/>
</clipPath>
</defs>
</svg>
