<svg width="40" height="40" viewBox="0 0 40 40" fill="none" xmlns="http://www.w3.org/2000/svg">
<rect width="40" height="40" rx="12" fill="#3B3B4D"/>
<path d="M12 25.9808V17.7075C12 14.0742 12 12.2575 13.1716 11.1287C14.3431 10 16.2288 10 20 10C23.7712 10 25.6569 10 26.8284 11.1287C28 12.2575 28 14.0742 28 17.7075V25.9808C28 28.2867 28 29.4396 27.2272 29.8523C25.7305 30.6514 22.9232 27.9852 21.59 27.1824C20.8168 26.7168 20.4302 26.484 20 26.484C19.5698 26.484 19.1832 26.7168 18.41 27.1824C17.0768 27.9852 14.2695 30.6514 12.7728 29.8523C12 29.4396 12 28.2867 12 25.9808Z" stroke="#FAFAFA" stroke-width="2" stroke-linecap="round" stroke-linejoin="round"/>
</svg>
