<svg width="20" height="20" viewBox="0 0 20 20" fill="none" xmlns="http://www.w3.org/2000/svg">
<g clip-path="url(#clip0_6206_34073)">
<path d="M10 7.845V9.16667C10 9.6275 10.3725 10 10.8333 10H12.155C13.045 10 13.8817 9.65333 14.5117 9.02333L19.2675 4.2675C20.2425 3.2925 20.2425 1.7075 19.2675 0.7325C18.2925 -0.2425 16.7075 -0.2425 15.7325 0.7325L10.9767 5.48833C10.3467 6.11833 10 6.955 10 7.845ZM11.6667 7.845C11.6667 7.4 11.84 6.98167 12.155 6.66667L16.9108 1.91083C17.2367 1.585 17.7633 1.585 18.0892 1.91083C18.415 2.23667 18.4142 2.76417 18.0892 3.08917L13.3333 7.845C13.0183 8.16 12.6 8.33333 12.155 8.33333H11.6667V7.845ZM17.5 14.1667H16.6667V11.6667C16.6667 11.2058 16.2942 10.8333 15.8333 10.8333C15.3725 10.8333 15 11.2058 15 11.6667V14.1667H10.8333C9.455 14.1667 8.33333 15.2883 8.33333 16.6667V17.0833C8.33333 17.7725 7.7725 18.3333 7.08333 18.3333C6.39417 18.3333 5.83333 17.7725 5.83333 17.0833V2.91667C5.83333 2.4675 5.7225 2.04667 5.54083 1.66667H11.6667C12.1275 1.66667 12.5 1.29417 12.5 0.833333C12.5 0.3725 12.1275 0 11.6667 0H2.91667C1.30833 0 0 1.30833 0 2.91667V3.33333C0 4.71167 1.12167 5.83333 2.5 5.83333H4.16667V17.0833C4.16667 18.6917 5.47417 19.9992 7.08167 20H17.0833C18.6917 20 20 18.6917 20 17.0833V16.6667C20 15.2883 18.8783 14.1667 17.5 14.1667ZM4.16667 4.16667H2.5C2.04 4.16667 1.66667 3.79333 1.66667 3.33333V2.91667C1.66667 2.2275 2.2275 1.66667 2.91667 1.66667C3.60583 1.66667 4.16667 2.2275 4.16667 2.91667V4.16667ZM18.3333 17.0833C18.3333 17.7725 17.7725 18.3333 17.0833 18.3333H9.71833C9.89917 17.9542 10 17.53 10 17.0833V16.6667C10 16.2067 10.3733 15.8333 10.8333 15.8333H17.5C17.96 15.8333 18.3333 16.2067 18.3333 16.6667V17.0833Z" fill="#FAFAFA"/>
</g>
<defs>
<clipPath id="clip0_6206_34073">
<rect width="20" height="20" fill="white"/>
</clipPath>
</defs>
</svg>
