<svg width="20" height="20" viewBox="0 0 20 20" fill="none" xmlns="http://www.w3.org/2000/svg">
<path d="M15.9931 7.86244L14.3554 6.21895C13.1754 5.03479 12.7128 4.39777 12.0738 4.62297C11.2771 4.90377 11.5394 6.67556 11.5394 7.27371C10.3006 7.27371 9.01264 7.16362 7.79154 7.39302C3.76049 8.15032 2.5 11.4242 2.5 14.9948C3.64091 14.1866 4.7807 13.3257 6.15194 12.9511C7.86364 12.4835 9.77532 12.7066 11.5394 12.7066C11.5394 13.3048 11.2771 15.0766 12.0738 15.3574C12.7979 15.6125 13.1754 14.9456 14.3554 13.7614L15.9931 12.1179C16.9977 11.1098 17.5 10.6058 17.5 9.99018C17.5 9.37459 16.9977 8.87054 15.9931 7.86244Z" stroke="white" stroke-width="1.5" stroke-linecap="round" stroke-linejoin="round"/>
</svg>
