<svg width="20" height="20" viewBox="0 0 20 20" fill="none" xmlns="http://www.w3.org/2000/svg">
<path d="M14.25 6.5C15.4926 6.5 16.5 5.49264 16.5 4.25C16.5 3.00736 15.4926 2 14.25 2C13.0074 2 12 3.00736 12 4.25C12 5.49264 13.0074 6.5 14.25 6.5Z" stroke="white" stroke-width="1.35" stroke-linecap="round" stroke-linejoin="round"/>
<path d="M5.25 11.75C6.49264 11.75 7.5 10.7426 7.5 9.5C7.5 8.25736 6.49264 7.25 5.25 7.25C4.00736 7.25 3 8.25736 3 9.5C3 10.7426 4.00736 11.75 5.25 11.75Z" stroke="white" stroke-width="1.35" stroke-linecap="round" stroke-linejoin="round"/>
<path d="M14.25 17C15.4926 17 16.5 15.9926 16.5 14.75C16.5 13.5074 15.4926 12.5 14.25 12.5C13.0074 12.5 12 13.5074 12 14.75C12 15.9926 13.0074 17 14.25 17Z" stroke="white" stroke-width="1.35" stroke-linecap="round" stroke-linejoin="round"/>
<path d="M7.1875 10.6328L12.31 13.6178" stroke="white" stroke-width="1.35" stroke-linecap="round" stroke-linejoin="round"/>
<path d="M12.3025 5.38281L7.1875 8.36781" stroke="white" stroke-width="1.35" stroke-linecap="round" stroke-linejoin="round"/>
</svg>
