<svg width="21" height="20" viewBox="0 0 21 20" fill="none" xmlns="http://www.w3.org/2000/svg">
<g clip-path="url(#clip0_6206_34192)">
<path d="M19.295 0.769191C18.9188 0.45543 18.4777 0.228948 18.0035 0.106038C17.5293 -0.0168727 17.0338 -0.0331567 16.5525 0.0583573L8.89917 1.49336C7.94395 1.67237 7.08135 2.17966 6.46062 2.92746C5.83989 3.67525 5.50009 4.6165 5.5 5.58836V13.7967C4.99555 13.4968 4.42021 13.3368 3.83334 13.3334C3.17406 13.3334 2.5296 13.5289 1.98143 13.8951C1.43327 14.2614 1.00603 14.782 0.753736 15.3911C0.501444 16.0002 0.435433 16.6704 0.564051 17.317C0.692668 17.9636 1.01014 18.5575 1.47631 19.0237C1.94249 19.4899 2.53643 19.8074 3.18303 19.936C3.82964 20.0646 4.49986 19.9986 5.10895 19.7463C5.71803 19.494 6.23863 19.0668 6.6049 18.5186C6.97117 17.9704 7.16667 17.326 7.16667 16.6667V9.06336C7.16664 8.67451 7.30257 8.29789 7.55094 7.9987C7.7993 7.69951 8.14446 7.49657 8.52667 7.42502L17.8458 5.67502C17.9667 5.65226 18.0911 5.65655 18.2102 5.68757C18.3292 5.71859 18.4399 5.77558 18.5343 5.85445C18.6287 5.93331 18.7045 6.0321 18.7562 6.14372C18.8079 6.25534 18.8342 6.37702 18.8333 6.50002V11.3C18.3292 10.9989 17.7539 10.8378 17.1667 10.8334C16.5074 10.8334 15.8629 11.0289 15.3148 11.3951C14.7666 11.7614 14.3394 12.282 14.0871 12.8911C13.8348 13.5002 13.7688 14.1704 13.8974 14.817C14.026 15.4636 14.3435 16.0575 14.8096 16.5237C15.2758 16.9899 15.8698 17.3074 16.5164 17.436C17.163 17.5646 17.8332 17.4986 18.4423 17.2463C19.0514 16.994 19.572 16.5668 19.9382 16.0186C20.3045 15.4704 20.5 14.826 20.5 14.1667V3.33336C20.5006 2.84356 20.3928 2.35969 20.1845 1.91639C19.9762 1.4731 19.6724 1.08135 19.295 0.769191ZM3.83334 18.3334C3.5037 18.3334 3.18147 18.2356 2.90738 18.0525C2.6333 17.8693 2.41968 17.609 2.29354 17.3045C2.16739 17 2.13438 16.6648 2.19869 16.3415C2.263 16.0182 2.42174 15.7213 2.65482 15.4882C2.88791 15.2551 3.18488 15.0964 3.50818 15.032C3.83149 14.9677 4.1666 15.0007 4.47114 15.1269C4.77568 15.253 5.03598 15.4667 5.21912 15.7407C5.40225 16.0148 5.5 16.3371 5.5 16.6667C5.5 17.1087 5.32441 17.5326 5.01185 17.8452C4.69929 18.1578 4.27536 18.3334 3.83334 18.3334ZM17.5392 4.04002L8.21917 5.78669C7.84861 5.8573 7.49272 5.9903 7.16667 6.18002V5.58836C7.16659 5.00521 7.37037 4.44037 7.74275 3.9916C8.11513 3.54283 8.63268 3.23835 9.20584 3.13086L16.86 1.69586C17.1006 1.65082 17.3482 1.65933 17.5851 1.72079C17.8221 1.78226 18.0426 1.89516 18.231 2.05148C18.4194 2.2078 18.571 2.4037 18.6751 2.62525C18.7792 2.8468 18.8332 3.08857 18.8333 3.33336V4.15336C18.4199 4.00042 17.9729 3.96128 17.5392 4.04002ZM17.1667 15.8334C16.837 15.8334 16.5148 15.7356 16.2407 15.5525C15.9666 15.3693 15.753 15.109 15.6269 14.8045C15.5007 14.5 15.4677 14.1648 15.532 13.8415C15.5963 13.5182 15.7551 13.2213 15.9882 12.9882C16.2212 12.7551 16.5182 12.5964 16.8415 12.532C17.1648 12.4677 17.4999 12.5007 17.8045 12.6269C18.109 12.753 18.3693 12.9667 18.5525 13.2407C18.7356 13.5148 18.8333 13.8371 18.8333 14.1667C18.8333 14.6087 18.6577 15.0326 18.3452 15.3452C18.0326 15.6578 17.6087 15.8334 17.1667 15.8334Z" fill="#FAFAFA"/>
</g>
<defs>
<clipPath id="clip0_6206_34192">
<rect width="20" height="20" fill="white" transform="translate(0.5)"/>
</clipPath>
</defs>
</svg>
