<svg width="221" height="220" viewBox="0 0 221 220" fill="none" xmlns="http://www.w3.org/2000/svg">
<g filter="url(#filter0_d_6008_36708)">
<path d="M107.863 80.9817L101.789 86.2712H110.501V80C109.56 79.997 108.619 80.3242 107.863 80.9817Z" fill="#FDF0BC"/>
<path d="M113.107 80.9756C112.359 80.3283 111.432 80.003 110.504 80V86.2712H119.215L113.107 80.9756Z" fill="url(#paint0_linear_6008_36708)"/>
<path d="M89.3118 89.6498L88.0586 97.6069L94.7317 92.0073L90.7007 87.2031C89.9784 87.8049 89.4678 88.661 89.3118 89.6498Z" fill="#FDF0BC"/>
<path d="M93.3201 86.2818C92.3313 86.2656 91.4114 86.6131 90.6992 87.2078L94.7303 92.012L101.403 86.4125L93.3201 86.2818Z" fill="url(#paint1_linear_6008_36708)"/>
<path d="M80.6739 108.229L84.8275 115.13L86.34 106.551L80.1653 105.461C79.9981 106.387 80.1572 107.371 80.6739 108.229Z" fill="#FDF0BC"/>
<path d="M81.5763 103.065C80.8094 103.689 80.3282 104.546 80.1641 105.459L86.3398 106.548L87.8523 97.9688L81.5763 103.065Z" fill="url(#paint2_linear_6008_36708)"/>
<path d="M85.9922 127.999L93.6106 130.615L89.2553 123.07L83.8242 126.206C84.2912 127.022 85.045 127.674 85.9922 127.999Z" fill="url(#paint3_linear_6008_36708)"/>
<path d="M83.3658 123.469C83.1784 124.44 83.3607 125.406 83.8217 126.212L89.2528 123.076L84.8975 115.531L83.3658 123.469Z" fill="url(#paint4_linear_6008_36708)"/>
<path d="M102.782 139.731L110.299 136.839L102.113 133.859L99.9688 139.753C100.851 140.077 101.848 140.091 102.782 139.731Z" fill="url(#paint5_linear_6008_36708)"/>
<path d="M97.8506 137.941C98.3308 138.805 99.0916 139.428 99.9629 139.748L102.108 133.855L93.9219 130.875L97.8506 137.941Z" fill="url(#paint6_linear_6008_36708)"/>
<path d="M123.181 137.931L127.08 130.883L118.895 133.862L121.039 139.756C121.923 139.437 122.696 138.807 123.181 137.931Z" fill="url(#paint7_linear_6008_36708)"/>
<path d="M118.258 139.726C119.181 140.08 120.164 140.068 121.037 139.753L118.893 133.859L110.707 136.839L118.258 139.726Z" fill="url(#paint8_linear_6008_36708)"/>
<path d="M137.648 123.437L136.105 115.531L131.75 123.076L137.181 126.212C137.653 125.398 137.841 124.419 137.648 123.437Z" fill="url(#paint9_linear_6008_36708)"/>
<path d="M135.03 127.973C135.964 127.65 136.71 127.008 137.177 126.206L131.746 123.07L127.391 130.615L135.03 127.973Z" fill="url(#paint10_linear_6008_36708)"/>
<path d="M139.412 103.032L133.148 97.9688L134.661 106.548L140.837 105.459C140.678 104.533 140.191 103.662 139.412 103.032Z" fill="url(#paint11_linear_6008_36708)"/>
<path d="M140.331 108.194C140.84 107.346 140.999 106.376 140.84 105.461L134.664 106.55L136.177 115.129L140.331 108.194Z" fill="url(#paint12_linear_6008_36708)"/>
<path d="M127.651 86.2663L119.598 86.4132L126.271 92.0127L130.302 87.2085C129.584 86.6027 128.653 86.2481 127.651 86.2663Z" fill="url(#paint13_linear_6008_36708)"/>
<path d="M131.671 89.6235C131.515 88.6468 131.014 87.8019 130.304 87.2031L126.273 92.0073L132.947 97.6069L131.671 89.6235Z" fill="url(#paint14_linear_6008_36708)"/>
<path d="M110.497 132.082C122.247 132.082 131.772 122.557 131.772 110.807C131.772 99.0566 122.247 89.5312 110.497 89.5312C98.7476 89.5312 89.2227 99.0566 89.2227 110.807C89.2227 122.557 98.7476 132.082 110.497 132.082Z" fill="url(#paint15_radial_6008_36708)"/>
<path d="M110.499 87.6328C97.7002 87.6328 87.3242 98.0082 87.3242 110.808C87.3242 123.608 97.7002 133.984 110.499 133.984C123.299 133.984 133.675 123.608 133.675 110.808C133.675 98.0082 123.299 87.6328 110.499 87.6328ZM110.499 132.081C98.7507 132.081 89.2268 122.557 89.2268 110.808C89.2268 99.0588 98.7507 89.5344 110.499 89.5344C122.248 89.5344 131.772 99.0588 131.772 110.808C131.772 122.557 122.248 132.081 110.499 132.081Z" fill="url(#paint16_linear_6008_36708)"/>
<path d="M110.499 84.6719C96.0662 84.6719 84.3672 96.3714 84.3672 110.804C84.3672 125.237 96.0662 136.937 110.499 136.937C124.931 136.937 136.63 125.237 136.63 110.804C136.63 96.3714 124.931 84.6719 110.499 84.6719ZM110.499 133.969C97.7054 133.969 87.3345 123.598 87.3345 110.804C87.3345 98.0106 97.7054 87.6403 110.499 87.6403C123.292 87.6403 133.663 98.0116 133.663 110.805C133.663 123.599 123.292 133.969 110.499 133.969Z" fill="url(#paint17_linear_6008_36708)"/>
<path d="M104.639 121.464C104.285 121.464 103.956 121.35 103.665 121.148C103.627 121.122 103.602 121.097 103.577 121.072C103.551 121.06 103.538 121.034 103.526 121.021C103.475 120.983 103.45 120.945 103.413 120.908C103.387 120.882 103.374 120.857 103.35 120.832L103.338 120.819C103.312 120.794 103.299 120.769 103.287 120.743L103.262 120.705C103.211 120.629 103.173 120.553 103.135 120.477C103.123 120.44 103.11 120.401 103.096 120.364C103.084 120.325 103.071 120.275 103.059 120.237C103.046 120.186 103.034 120.123 103.02 120.06C103.02 120.034 103.008 119.997 103.008 119.971C103.008 119.921 102.996 119.87 102.996 119.819C102.996 119.731 103.008 119.642 103.021 119.541L103.996 113.871L99.883 109.859C99.807 109.784 99.731 109.695 99.6682 109.606C99.5922 109.493 99.5416 109.404 99.5041 109.302C99.4919 109.265 99.4666 109.214 99.4534 109.15C99.4149 108.998 99.3906 108.846 99.3906 108.682C99.3906 108.632 99.3906 108.594 99.3906 108.543C99.3906 108.467 99.4028 108.391 99.4281 108.315C99.4281 108.303 99.4403 108.278 99.4403 108.265C99.4534 108.226 99.4534 108.189 99.4656 108.151C99.4656 108.139 99.4778 108.113 99.4909 108.075C99.5031 108.037 99.5162 107.999 99.5416 107.962C99.5791 107.886 99.6176 107.81 99.6804 107.722C99.7057 107.671 99.7432 107.634 99.7817 107.595C99.7817 107.595 99.7817 107.583 99.7938 107.583L99.9964 107.254H100.174C100.199 107.241 100.211 107.228 100.237 107.215C100.262 107.203 100.313 107.178 100.35 107.152C100.401 107.127 100.463 107.102 100.539 107.076C100.565 107.064 100.602 107.051 100.641 107.051C100.691 107.039 100.742 107.026 100.805 107.013L106.499 106.19L109.005 101.065C109.283 100.495 109.853 100.141 110.485 100.141C110.941 100.141 111.383 100.33 111.7 100.659C111.75 100.722 111.801 100.773 111.838 100.837C111.889 100.913 111.94 100.989 111.977 101.065L114.521 106.202L120.202 107.025C120.835 107.113 121.354 107.557 121.544 108.164C121.557 108.202 121.569 108.226 121.569 108.265C121.569 108.277 121.569 108.277 121.581 108.29C121.593 108.329 121.606 108.366 121.606 108.417C121.606 108.429 121.606 108.429 121.606 108.442C121.619 108.493 121.619 108.53 121.619 108.581C121.632 108.821 121.593 109.074 121.492 109.302C121.453 109.404 121.404 109.492 121.34 109.581L121.327 109.593C121.264 109.681 121.188 109.77 121.112 109.846L116.999 113.858L117.974 119.515C118.075 120.135 117.835 120.755 117.315 121.135C117.188 121.223 117.036 121.312 116.884 121.362C116.871 121.362 116.859 121.376 116.834 121.376C116.67 121.426 116.505 121.452 116.34 121.452C116.075 121.452 115.809 121.389 115.568 121.262L110.482 118.592L105.395 121.262C105.17 121.401 104.905 121.464 104.639 121.464Z" fill="#DF771E"/>
<path d="M110.481 100.953V111.419L106.988 106.952L109.722 101.422C109.887 101.118 110.191 100.953 110.481 100.953Z" fill="#FFFAF6"/>
<path d="M120.772 108.433L110.496 111.42L113.988 106.953L120.088 107.839C120.43 107.901 120.67 108.142 120.772 108.433Z" fill="#FEE0AC"/>
<path d="M116.836 120.488L110.484 111.414L116.128 113.578L117.166 119.653C117.241 120.007 117.089 120.31 116.836 120.488Z" fill="#ECB76B"/>
<path d="M110.482 111.414V117.678L105.028 120.55C104.711 120.715 104.382 120.664 104.129 120.488L110.482 111.414Z" fill="#F1A341"/>
<path d="M113.977 106.952L110.484 111.419V100.953C110.712 100.953 110.94 101.041 111.104 101.219C111.13 101.244 111.155 101.281 111.18 101.32C111.206 101.358 111.231 101.396 111.243 101.433L113.977 106.952Z" fill="#FFE9BA"/>
<path d="M120.745 109.003C120.72 109.053 120.695 109.104 120.669 109.154C120.631 109.205 120.593 109.243 120.556 109.293L116.14 113.596L110.496 111.432L120.772 108.445C120.772 108.457 120.784 108.471 120.784 108.484C120.784 108.497 120.797 108.509 120.797 108.534C120.797 108.548 120.797 108.548 120.797 108.548C120.797 108.56 120.797 108.573 120.797 108.585C120.797 108.61 120.797 108.624 120.797 108.648C120.809 108.761 120.796 108.888 120.745 109.003Z" fill="#E49632"/>
<path d="M116.837 120.488C116.775 120.538 116.699 120.576 116.609 120.601C116.597 120.601 116.597 120.601 116.584 120.613C116.382 120.676 116.154 120.664 115.939 120.55L110.484 117.678V111.414L116.837 120.488Z" fill="#E29136"/>
<path d="M110.481 111.414L104.129 120.488C104.117 120.474 104.104 120.462 104.092 120.449C104.079 120.437 104.066 120.424 104.053 120.411C104.041 120.398 104.028 120.385 104.002 120.36C103.989 120.348 103.977 120.335 103.964 120.321C103.951 120.308 103.952 120.309 103.952 120.296C103.94 120.284 103.926 120.271 103.926 120.258C103.901 120.22 103.876 120.182 103.864 120.144C103.851 120.132 103.851 120.106 103.838 120.081C103.826 120.056 103.826 120.043 103.813 120.018C103.801 119.993 103.801 119.956 103.801 119.93C103.801 119.918 103.801 119.892 103.801 119.88C103.801 119.854 103.801 119.829 103.801 119.804C103.801 119.753 103.801 119.702 103.813 119.652L104.85 113.577L110.481 111.414Z" fill="#FED891"/>
<path d="M110.483 111.416L100.207 108.429C100.207 108.417 100.219 108.404 100.219 108.39C100.231 108.365 100.231 108.34 100.245 108.328C100.27 108.277 100.295 108.239 100.32 108.201C100.333 108.176 100.346 108.162 100.371 108.138C100.384 108.126 100.396 108.1 100.422 108.088C100.434 108.075 100.46 108.05 100.472 108.037C100.485 108.024 100.51 108.012 100.523 107.998C100.548 107.986 100.574 107.96 100.599 107.948C100.611 107.936 100.637 107.922 100.662 107.922C100.7 107.91 100.725 107.897 100.763 107.884C100.775 107.884 100.789 107.872 100.814 107.872C100.839 107.86 100.877 107.86 100.915 107.846L107.015 106.961L110.483 111.416Z" fill="#FFF3D9"/>
<path d="M110.484 111.421L104.853 113.597L100.437 109.294C100.386 109.256 100.361 109.206 100.323 109.155C100.298 109.105 100.261 109.054 100.247 109.003C100.235 108.978 100.222 108.953 100.222 108.927C100.197 108.851 100.184 108.763 100.184 108.687C100.184 108.662 100.184 108.637 100.184 108.611C100.184 108.574 100.184 108.549 100.197 108.51C100.197 108.498 100.209 108.485 100.209 108.459C100.209 108.447 100.221 108.434 100.221 108.422L110.484 111.421Z" fill="#ECB76B"/>
</g>
<defs>
<filter id="filter0_d_6008_36708" x="0.101562" y="0" width="220.797" height="220" filterUnits="userSpaceOnUse" color-interpolation-filters="sRGB">
<feFlood flood-opacity="0" result="BackgroundImageFix"/>
<feColorMatrix in="SourceAlpha" type="matrix" values="0 0 0 0 0 0 0 0 0 0 0 0 0 0 0 0 0 0 127 0" result="hardAlpha"/>
<feOffset/>
<feGaussianBlur stdDeviation="40"/>
<feComposite in2="hardAlpha" operator="out"/>
<feColorMatrix type="matrix" values="0 0 0 0 0.980392 0 0 0 0 0.666667 0 0 0 0 0.192157 0 0 0 0.6 0"/>
<feBlend mode="normal" in2="BackgroundImageFix" result="effect1_dropShadow_6008_36708"/>
<feBlend mode="normal" in="SourceGraphic" in2="effect1_dropShadow_6008_36708" result="shape"/>
</filter>
<linearGradient id="paint0_linear_6008_36708" x1="110.93" y1="83.1356" x2="118.929" y2="83.1356" gradientUnits="userSpaceOnUse">
<stop stop-color="#FEE998"/>
<stop offset="1" stop-color="#FCC15B"/>
</linearGradient>
<linearGradient id="paint1_linear_6008_36708" x1="93.135" y1="89.2551" x2="101.119" y2="82.5554" gradientUnits="userSpaceOnUse">
<stop stop-color="#FEE998"/>
<stop offset="1" stop-color="#FCC15B"/>
</linearGradient>
<linearGradient id="paint2_linear_6008_36708" x1="87.9952" y1="97.9508" x2="83.4897" y2="105.352" gradientUnits="userSpaceOnUse">
<stop stop-color="#FCC15B"/>
<stop offset="1" stop-color="#FEE998"/>
</linearGradient>
<linearGradient id="paint3_linear_6008_36708" x1="85.8782" y1="124.463" x2="93.7089" y2="129.611" gradientUnits="userSpaceOnUse">
<stop stop-color="#FFC05F"/>
<stop offset="1" stop-color="#ED892B"/>
</linearGradient>
<linearGradient id="paint4_linear_6008_36708" x1="84.9868" y1="115.695" x2="86.3814" y2="124.492" gradientUnits="userSpaceOnUse">
<stop stop-color="#FCC15B"/>
<stop offset="1" stop-color="#FEE998"/>
</linearGradient>
<linearGradient id="paint5_linear_6008_36708" x1="101.433" y1="136.911" x2="109.156" y2="138.627" gradientUnits="userSpaceOnUse">
<stop stop-color="#FEAC3E"/>
<stop offset="1" stop-color="#F08223"/>
</linearGradient>
<linearGradient id="paint6_linear_6008_36708" x1="93.5356" y1="130.808" x2="100.615" y2="136.6" gradientUnits="userSpaceOnUse">
<stop stop-color="#FFA135"/>
<stop offset="1" stop-color="#FEB431"/>
</linearGradient>
<linearGradient id="paint7_linear_6008_36708" x1="127.111" y1="130.832" x2="120.049" y2="136.911" gradientUnits="userSpaceOnUse">
<stop stop-color="#FFAA3D"/>
<stop offset="1" stop-color="#ED8B1C"/>
</linearGradient>
<linearGradient id="paint8_linear_6008_36708" x1="110.738" y1="137.403" x2="119.748" y2="136.903" gradientUnits="userSpaceOnUse">
<stop stop-color="#FF962D"/>
<stop offset="1" stop-color="#E56005"/>
</linearGradient>
<linearGradient id="paint9_linear_6008_36708" x1="136.436" y1="115.563" x2="134.625" y2="124.383" gradientUnits="userSpaceOnUse">
<stop stop-color="#FDBD41"/>
<stop offset="1" stop-color="#FEB334"/>
</linearGradient>
<linearGradient id="paint10_linear_6008_36708" x1="138.807" y1="117.111" x2="130.095" y2="132.2" gradientUnits="userSpaceOnUse">
<stop stop-color="#F6942F"/>
<stop offset="1" stop-color="#EA6F11"/>
</linearGradient>
<linearGradient id="paint11_linear_6008_36708" x1="132.711" y1="98.2224" x2="137.956" y2="105.993" gradientUnits="userSpaceOnUse">
<stop stop-color="#FDBD41"/>
<stop offset="1" stop-color="#FEB334"/>
</linearGradient>
<linearGradient id="paint12_linear_6008_36708" x1="135.85" y1="115.107" x2="137.9" y2="106.049" gradientUnits="userSpaceOnUse">
<stop stop-color="#FD9D24"/>
<stop offset="1" stop-color="#FF9515"/>
</linearGradient>
<linearGradient id="paint13_linear_6008_36708" x1="128.185" y1="89.4925" x2="120.081" y2="85.5833" gradientUnits="userSpaceOnUse">
<stop stop-color="#FCC15B"/>
<stop offset="1" stop-color="#FEE998"/>
</linearGradient>
<linearGradient id="paint14_linear_6008_36708" x1="128.227" y1="88.9887" x2="132.089" y2="97.5703" gradientUnits="userSpaceOnUse">
<stop stop-color="#FF9515"/>
<stop offset="1" stop-color="#FFBE41"/>
</linearGradient>
<radialGradient id="paint15_radial_6008_36708" cx="0" cy="0" r="1" gradientUnits="userSpaceOnUse" gradientTransform="translate(110.497 110.806) scale(21.2746 21.2755)">
<stop offset="0.8428" stop-color="#FAAA31"/>
<stop offset="1" stop-color="#F57E16"/>
</radialGradient>
<linearGradient id="paint16_linear_6008_36708" x1="110.5" y1="87.6324" x2="110.5" y2="133.985" gradientUnits="userSpaceOnUse">
<stop offset="0.0226" stop-color="#FD9A18"/>
<stop offset="0.3764" stop-color="#FEC752"/>
<stop offset="1" stop-color="#FFA422"/>
</linearGradient>
<linearGradient id="paint17_linear_6008_36708" x1="110.499" y1="84.5953" x2="110.499" y2="136.86" gradientUnits="userSpaceOnUse">
<stop stop-color="#FFDB69"/>
<stop offset="0.1799" stop-color="#FEE7B0"/>
<stop offset="0.24" stop-color="#FEE9BA"/>
<stop offset="0.2592" stop-color="#FDECD0"/>
<stop offset="0.2953" stop-color="#FEDA92"/>
<stop offset="0.3254" stop-color="#FFCD64"/>
<stop offset="0.3405" stop-color="#FFC853"/>
<stop offset="0.7613" stop-color="#FF9114"/>
<stop offset="1" stop-color="#F57E16"/>
</linearGradient>
</defs>
</svg>
