<svg width="194" height="174" viewBox="0 0 194 174" fill="none" xmlns="http://www.w3.org/2000/svg">
<g clip-path="url(#clip0_6444_30127)">
<g filter="url(#filter0_d_6444_30127)">
<path d="M92.2734 38.6362L82.1484 47.4518H96.6684V37C95.1014 36.995 93.5324 37.5404 92.2734 38.6362Z" fill="#FDF0BC"/>
<path d="M101.006 38.626C99.76 37.5471 98.215 37.0051 96.668 37V47.4517H111.187L101.006 38.626Z" fill="url(#paint0_linear_6444_30127)"/>
<path d="M61.3504 53.0933L59.2617 66.355L70.384 57.022L63.6653 49.0156C62.4614 50.0186 61.6104 51.4454 61.3504 53.0933Z" fill="#FDF0BC"/>
<path d="M68.036 47.4697C66.388 47.4426 64.855 48.0218 63.668 49.0129L70.386 57.02L81.509 47.6875L68.036 47.4697Z" fill="url(#paint1_linear_6444_30127)"/>
<path d="M46.9538 84.0427L53.8766 95.5447L56.3975 81.2457L46.1062 79.4297C45.8276 80.9727 46.0927 82.6117 46.9538 84.0427Z" fill="#FDF0BC"/>
<path d="M48.4592 75.4383C47.181 76.4793 46.379 77.9073 46.1055 79.4283L56.3985 81.2433L58.9194 66.9453L48.4592 75.4383Z" fill="url(#paint2_linear_6444_30127)"/>
<path d="M55.8204 117.004L68.518 121.363L61.259 108.789L52.207 114.015C52.9854 115.376 54.2417 116.462 55.8204 117.004Z" fill="url(#paint3_linear_6444_30127)"/>
<path d="M51.4417 109.448C51.1293 111.066 51.4332 112.676 52.2015 114.019L61.2535 108.793L53.9946 96.2188L51.4417 109.448Z" fill="url(#paint4_linear_6444_30127)"/>
<path d="M83.7984 136.552L96.3274 131.731L82.6844 126.766L79.1094 136.588C80.5804 137.128 82.2424 137.152 83.7984 136.552Z" fill="url(#paint5_linear_6444_30127)"/>
<path d="M75.5871 133.572C76.3871 135.013 77.6551 136.051 79.1081 136.585L82.6821 126.763L69.0391 121.797L75.5871 133.572Z" fill="url(#paint6_linear_6444_30127)"/>
<path d="M117.8 133.552L124.299 121.805L110.656 126.771L114.231 136.592C115.703 136.061 116.991 135.012 117.8 133.552Z" fill="url(#paint7_linear_6444_30127)"/>
<path d="M109.596 136.544C111.136 137.133 112.774 137.113 114.229 136.588L110.655 126.766L97.0117 131.731L109.596 136.544Z" fill="url(#paint8_linear_6444_30127)"/>
<path d="M141.912 109.394L139.341 96.2188L132.082 108.793L141.134 114.019C141.921 112.663 142.233 111.032 141.912 109.394Z" fill="url(#paint9_linear_6444_30127)"/>
<path d="M137.553 116.96C139.11 116.421 140.353 115.352 141.131 114.015L132.079 108.789L124.82 121.363L137.553 116.96Z" fill="url(#paint10_linear_6444_30127)"/>
<path d="M144.854 75.3843L134.414 66.9453L136.935 81.2433L147.228 79.4283C146.963 77.8853 146.152 76.4353 144.854 75.3843Z" fill="url(#paint11_linear_6444_30127)"/>
<path d="M146.382 83.9847C147.23 82.5717 147.495 80.9537 147.23 79.4297L136.938 81.2447L139.457 95.5427L146.382 83.9847Z" fill="url(#paint12_linear_6444_30127)"/>
<path d="M125.254 47.4386L111.832 47.6834L122.954 57.016L129.673 49.0089C128.475 47.9992 126.924 47.4082 125.254 47.4386Z" fill="url(#paint13_linear_6444_30127)"/>
<path d="M131.949 53.0494C131.689 51.4217 130.854 50.0135 129.672 49.0156L122.953 57.022L134.075 66.355L131.949 53.0494Z" fill="url(#paint14_linear_6444_30127)"/>
<path d="M96.665 123.799C116.248 123.799 132.124 107.924 132.124 88.341C132.124 68.758 116.248 52.8828 96.665 52.8828C77.082 52.8828 61.207 68.758 61.207 88.341C61.207 107.924 77.082 123.799 96.665 123.799Z" fill="url(#paint15_radial_6444_30127)"/>
<path d="M96.665 49.7188C75.333 49.7188 58.0391 67.0109 58.0391 88.3429C58.0391 109.675 75.333 126.969 96.665 126.969C117.997 126.969 135.291 109.675 135.291 88.3429C135.291 67.0109 117.997 49.7188 96.665 49.7188ZM96.665 123.798C77.084 123.798 61.21 107.924 61.21 88.3429C61.21 68.7619 77.084 52.8879 96.665 52.8879C116.246 52.8879 132.12 68.7619 132.12 88.3429C132.12 107.924 116.246 123.798 96.665 123.798Z" fill="url(#paint16_linear_6444_30127)"/>
<path d="M96.666 44.7891C72.612 44.7891 53.1133 64.288 53.1133 88.342C53.1133 112.396 72.612 131.895 96.666 131.895C120.72 131.895 140.219 112.396 140.219 88.342C140.219 64.288 120.72 44.7891 96.666 44.7891ZM96.666 126.949C75.344 126.949 58.0589 109.664 58.0589 88.342C58.0589 67.02 75.344 49.7363 96.666 49.7363C117.988 49.7363 135.273 67.021 135.273 88.344C135.273 109.666 117.988 126.949 96.666 126.949Z" fill="url(#paint17_linear_6444_30127)"/>
<path d="M86.8925 106.108C86.3015 106.108 85.7525 105.919 85.2675 105.581C85.2055 105.539 85.1635 105.497 85.1205 105.454C85.0785 105.434 85.0565 105.392 85.0365 105.37C84.9525 105.306 84.9095 105.243 84.8475 105.181C84.8055 105.139 84.7835 105.097 84.7425 105.054L84.7225 105.034C84.6805 104.992 84.6585 104.95 84.6375 104.907L84.5955 104.843C84.5115 104.717 84.4485 104.59 84.3845 104.463C84.3645 104.401 84.3425 104.337 84.3205 104.274C84.3005 104.21 84.2785 104.127 84.2585 104.063C84.2365 103.979 84.2155 103.874 84.1935 103.768C84.1935 103.725 84.1735 103.663 84.1735 103.621C84.1735 103.536 84.1535 103.452 84.1535 103.368C84.1535 103.221 84.1735 103.072 84.1955 102.903L85.8195 93.4543L78.9645 86.7683C78.8375 86.6413 78.7115 86.4943 78.6065 86.3463C78.4805 86.1573 78.3955 86.0083 78.3335 85.8393C78.3125 85.7773 78.2705 85.6923 78.2485 85.5863C78.1845 85.3333 78.1445 85.0793 78.1445 84.8063C78.1445 84.7223 78.1445 84.6593 78.1445 84.5753C78.1445 84.4483 78.1645 84.3213 78.2065 84.1953C78.2065 84.1743 78.2265 84.1323 78.2265 84.1103C78.2485 84.0463 78.2485 83.9843 78.2685 83.9213C78.2685 83.9013 78.2895 83.8573 78.3115 83.7953C78.3315 83.7303 78.3535 83.6683 78.3955 83.6053C78.4585 83.4793 78.5225 83.3523 78.6265 83.2053C78.6695 83.1213 78.7315 83.0583 78.7955 82.9943C78.7955 82.9943 78.7955 82.9743 78.8165 82.9743L79.1535 82.4253H79.4495C79.4915 82.4033 79.5115 82.3833 79.5535 82.3613C79.5965 82.3413 79.6805 82.2993 79.7435 82.2563C79.8275 82.2143 79.9325 82.1723 80.0585 82.1303C80.1005 82.1093 80.1635 82.0873 80.2275 82.0873C80.3125 82.0673 80.3965 82.0453 80.5015 82.0233L89.9925 80.6523L94.1675 72.1103C94.6325 71.1613 95.5815 70.5703 96.6345 70.5703C97.3945 70.5703 98.1325 70.8863 98.6595 71.4353C98.7435 71.5403 98.8285 71.6243 98.8905 71.7303C98.9745 71.8573 99.0595 71.9843 99.1215 72.1103L103.362 80.6733L112.831 82.0443C113.886 82.1903 114.751 82.9303 115.067 83.9413C115.089 84.0063 115.109 84.0463 115.109 84.1103C115.109 84.1313 115.109 84.1313 115.129 84.1533C115.149 84.2173 115.171 84.2793 115.171 84.3643C115.171 84.3843 115.171 84.3843 115.171 84.4063C115.192 84.4903 115.192 84.5533 115.192 84.6373C115.214 85.0373 115.149 85.4593 114.981 85.8393C114.916 86.0083 114.834 86.1553 114.727 86.3043L114.705 86.3243C114.601 86.4713 114.474 86.6193 114.347 86.7463L107.492 93.4323L109.116 102.859C109.285 103.893 108.885 104.926 108.019 105.559C107.808 105.706 107.555 105.855 107.301 105.939C107.279 105.939 107.259 105.961 107.217 105.961C106.943 106.045 106.668 106.088 106.395 106.088C105.952 106.088 105.508 105.983 105.108 105.772L96.6295 101.321L88.1515 105.772C87.7765 106.003 87.3345 106.108 86.8925 106.108Z" fill="#DF771E"/>
<path d="M96.6345 71.9219V89.3639L90.8125 81.9189L95.3685 72.7039C95.6435 72.1969 96.1505 71.9219 96.6345 71.9219Z" fill="#FFFAF6"/>
<path d="M113.783 84.3889L96.6562 89.3659L102.476 81.9219L112.643 83.3979C113.214 83.5019 113.614 83.9019 113.783 84.3889Z" fill="#FEE0AC"/>
<path d="M107.224 104.481L96.6367 89.3594L106.043 92.9664L107.772 103.09C107.897 103.681 107.644 104.186 107.224 104.481Z" fill="#ECB76B"/>
<path d="M96.6349 89.3594V99.7994L87.5449 104.586C87.0179 104.86 86.4689 104.775 86.0469 104.481L96.6349 89.3594Z" fill="#F1A341"/>
<path d="M102.459 81.9189L96.6367 89.3639V71.9219C97.0167 71.9219 97.3967 72.0689 97.6697 72.3639C97.7117 72.4059 97.7537 72.4689 97.7967 72.5329C97.8387 72.5969 97.8807 72.6599 97.9007 72.7219L102.459 81.9189Z" fill="#FFE9BA"/>
<path d="M113.739 85.3353C113.696 85.4193 113.654 85.5042 113.612 85.5882C113.548 85.6732 113.485 85.7353 113.423 85.8203L106.063 92.9912L96.6562 89.3843L113.783 84.4062C113.783 84.4272 113.803 84.4483 113.803 84.4703C113.803 84.4923 113.825 84.5133 113.825 84.5553C113.825 84.5773 113.825 84.5773 113.825 84.5773C113.825 84.5973 113.825 84.6193 113.825 84.6393C113.825 84.6813 113.825 84.7033 113.825 84.7443C113.845 84.9333 113.823 85.1443 113.739 85.3353Z" fill="#E49632"/>
<path d="M107.225 104.481C107.121 104.566 106.994 104.628 106.845 104.671C106.825 104.671 106.825 104.671 106.803 104.691C106.465 104.796 106.085 104.775 105.728 104.586L96.6367 99.7994V89.3594L107.225 104.481Z" fill="#E29136"/>
<path d="M96.634 89.3594L86.047 104.481C86.027 104.46 86.005 104.439 85.985 104.417C85.964 104.397 85.942 104.375 85.92 104.353C85.9 104.333 85.878 104.311 85.836 104.269C85.814 104.248 85.794 104.227 85.772 104.205C85.75 104.183 85.752 104.184 85.752 104.162C85.731 104.142 85.709 104.12 85.709 104.098C85.667 104.036 85.625 103.972 85.605 103.909C85.584 103.889 85.584 103.845 85.562 103.804C85.542 103.762 85.542 103.74 85.52 103.7C85.5 103.657 85.5 103.595 85.5 103.553C85.5 103.533 85.5 103.489 85.5 103.468C85.5 103.426 85.5 103.384 85.5 103.342C85.5 103.257 85.5 103.173 85.52 103.088L87.249 92.9644L96.634 89.3594Z" fill="#FED891"/>
<path d="M96.6338 89.3615L79.5078 84.3835C79.5078 84.3635 79.5278 84.3415 79.5278 84.3195C79.5478 84.2775 79.5478 84.2355 79.5698 84.2145C79.6128 84.1305 79.6548 84.0675 79.6968 84.0035C79.7168 83.9615 79.7388 83.9395 79.7808 83.8995C79.8028 83.8785 79.8238 83.8345 79.8658 83.8145C79.8858 83.7945 79.9298 83.7525 79.9498 83.7305C79.9698 83.7085 80.0128 83.6875 80.0348 83.6665C80.0768 83.6455 80.1188 83.6015 80.1608 83.5815C80.1818 83.5615 80.2238 83.5395 80.2658 83.5395C80.3298 83.5195 80.3708 83.4975 80.4348 83.4755C80.4548 83.4755 80.4768 83.4545 80.5188 83.4545C80.5608 83.4345 80.6238 83.4345 80.6878 83.4125L90.8538 81.9375L96.6338 89.3615Z" fill="#FFF3D9"/>
<path d="M96.6357 89.3652L87.2507 92.9922L79.8907 85.8212C79.8057 85.7572 79.7638 85.6742 79.7018 85.5902C79.6598 85.5052 79.5967 85.4212 79.5747 85.3362C79.5547 85.2942 79.5327 85.2522 79.5327 85.2102C79.4907 85.0832 79.4688 84.9362 79.4688 84.8102C79.4688 84.7672 79.4688 84.7252 79.4688 84.6832C79.4688 84.6202 79.4687 84.5782 79.4907 84.5142C79.4907 84.4942 79.5107 84.4722 79.5107 84.4302C79.5107 84.4092 79.5307 84.3872 79.5307 84.3672L96.6357 89.3652Z" fill="#ECB76B"/>
</g>
</g>
<defs>
<filter id="filter0_d_6444_30127" x="-34" y="-43" width="261.328" height="260" filterUnits="userSpaceOnUse" color-interpolation-filters="sRGB">
<feFlood flood-opacity="0" result="BackgroundImageFix"/>
<feColorMatrix in="SourceAlpha" type="matrix" values="0 0 0 0 0 0 0 0 0 0 0 0 0 0 0 0 0 0 127 0" result="hardAlpha"/>
<feOffset/>
<feGaussianBlur stdDeviation="40"/>
<feComposite in2="hardAlpha" operator="out"/>
<feColorMatrix type="matrix" values="0 0 0 0 0.980392 0 0 0 0 0.666667 0 0 0 0 0.192157 0 0 0 0.6 0"/>
<feBlend mode="normal" in2="BackgroundImageFix" result="effect1_dropShadow_6444_30127"/>
<feBlend mode="normal" in="SourceGraphic" in2="effect1_dropShadow_6444_30127" result="shape"/>
</filter>
<linearGradient id="paint0_linear_6444_30127" x1="97.378" y1="42.2259" x2="110.711" y2="42.2259" gradientUnits="userSpaceOnUse">
<stop stop-color="#FEE998"/>
<stop offset="1" stop-color="#FCC15B"/>
</linearGradient>
<linearGradient id="paint1_linear_6444_30127" x1="67.728" y1="52.425" x2="81.034" y2="41.2587" gradientUnits="userSpaceOnUse">
<stop stop-color="#FEE998"/>
<stop offset="1" stop-color="#FCC15B"/>
</linearGradient>
<linearGradient id="paint2_linear_6444_30127" x1="59.1575" y1="66.9153" x2="51.6487" y2="79.2513" gradientUnits="userSpaceOnUse">
<stop stop-color="#FCC15B"/>
<stop offset="1" stop-color="#FEE998"/>
</linearGradient>
<linearGradient id="paint3_linear_6444_30127" x1="55.6304" y1="111.109" x2="68.681" y2="119.691" gradientUnits="userSpaceOnUse">
<stop stop-color="#FFC05F"/>
<stop offset="1" stop-color="#ED892B"/>
</linearGradient>
<linearGradient id="paint4_linear_6444_30127" x1="54.1435" y1="96.4918" x2="56.4676" y2="111.152" gradientUnits="userSpaceOnUse">
<stop stop-color="#FCC15B"/>
<stop offset="1" stop-color="#FEE998"/>
</linearGradient>
<linearGradient id="paint5_linear_6444_30127" x1="81.5504" y1="131.852" x2="94.4224" y2="134.712" gradientUnits="userSpaceOnUse">
<stop stop-color="#FEAC3E"/>
<stop offset="1" stop-color="#F08223"/>
</linearGradient>
<linearGradient id="paint6_linear_6444_30127" x1="68.3951" y1="121.685" x2="80.1951" y2="131.339" gradientUnits="userSpaceOnUse">
<stop stop-color="#FFA135"/>
<stop offset="1" stop-color="#FEB431"/>
</linearGradient>
<linearGradient id="paint7_linear_6444_30127" x1="124.35" y1="121.721" x2="112.581" y2="131.852" gradientUnits="userSpaceOnUse">
<stop stop-color="#FFAA3D"/>
<stop offset="1" stop-color="#ED8B1C"/>
</linearGradient>
<linearGradient id="paint8_linear_6444_30127" x1="97.0627" y1="132.672" x2="112.081" y2="131.837" gradientUnits="userSpaceOnUse">
<stop stop-color="#FF962D"/>
<stop offset="1" stop-color="#E56005"/>
</linearGradient>
<linearGradient id="paint9_linear_6444_30127" x1="139.893" y1="96.2718" x2="136.873" y2="110.971" gradientUnits="userSpaceOnUse">
<stop stop-color="#FDBD41"/>
<stop offset="1" stop-color="#FEB334"/>
</linearGradient>
<linearGradient id="paint10_linear_6444_30127" x1="143.848" y1="98.8571" x2="129.329" y2="124.005" gradientUnits="userSpaceOnUse">
<stop stop-color="#F6942F"/>
<stop offset="1" stop-color="#EA6F11"/>
</linearGradient>
<linearGradient id="paint11_linear_6444_30127" x1="133.685" y1="67.3683" x2="142.426" y2="80.3203" gradientUnits="userSpaceOnUse">
<stop stop-color="#FDBD41"/>
<stop offset="1" stop-color="#FEB334"/>
</linearGradient>
<linearGradient id="paint12_linear_6444_30127" x1="138.913" y1="95.5057" x2="142.33" y2="80.4087" gradientUnits="userSpaceOnUse">
<stop stop-color="#FD9D24"/>
<stop offset="1" stop-color="#FF9515"/>
</linearGradient>
<linearGradient id="paint13_linear_6444_30127" x1="126.145" y1="52.8155" x2="112.637" y2="46.2999" gradientUnits="userSpaceOnUse">
<stop stop-color="#FCC15B"/>
<stop offset="1" stop-color="#FEE998"/>
</linearGradient>
<linearGradient id="paint14_linear_6444_30127" x1="126.209" y1="51.9915" x2="132.645" y2="66.294" gradientUnits="userSpaceOnUse">
<stop stop-color="#FF9515"/>
<stop offset="1" stop-color="#FFBE41"/>
</linearGradient>
<radialGradient id="paint15_radial_6444_30127" cx="0" cy="0" r="1" gradientUnits="userSpaceOnUse" gradientTransform="translate(96.666 88.34) scale(35.4583 35.4583)">
<stop offset="0.8428" stop-color="#FAAA31"/>
<stop offset="1" stop-color="#F57E16"/>
</radialGradient>
<linearGradient id="paint16_linear_6444_30127" x1="96.665" y1="49.7181" x2="96.665" y2="126.97" gradientUnits="userSpaceOnUse">
<stop offset="0.0226" stop-color="#FD9A18"/>
<stop offset="0.3764" stop-color="#FEC752"/>
<stop offset="1" stop-color="#FFA422"/>
</linearGradient>
<linearGradient id="paint17_linear_6444_30127" x1="96.666" y1="44.6614" x2="96.666" y2="131.768" gradientUnits="userSpaceOnUse">
<stop stop-color="#FFDB69"/>
<stop offset="0.1799" stop-color="#FEE7B0"/>
<stop offset="0.24" stop-color="#FEE9BA"/>
<stop offset="0.2592" stop-color="#FDECD0"/>
<stop offset="0.2953" stop-color="#FEDA92"/>
<stop offset="0.3254" stop-color="#FFCD64"/>
<stop offset="0.3405" stop-color="#FFC853"/>
<stop offset="0.7613" stop-color="#FF9114"/>
<stop offset="1" stop-color="#F57E16"/>
</linearGradient>
<clipPath id="clip0_6444_30127">
<rect width="194" height="174" fill="white"/>
</clipPath>
</defs>
</svg>
