<svg width="308" height="246" viewBox="0 0 308 246" fill="none" xmlns="http://www.w3.org/2000/svg">
<g filter="url(#filter0_f_3371_18004)">
<circle cx="154" cy="92" r="60" fill="#18BB54" fill-opacity="0.38"/>
</g>
<path d="M154.39 75.6328C145.159 75.6328 137.637 83.155 137.637 92.3861C137.637 101.617 145.159 109.139 154.39 109.139C163.621 109.139 171.143 101.617 171.143 92.3861C171.143 83.155 163.621 75.6328 154.39 75.6328ZM162.398 88.5328L152.899 98.0319C152.664 98.2665 152.346 98.4005 152.011 98.4005C151.676 98.4005 151.358 98.2665 151.123 98.0319L146.382 93.2907C145.896 92.8049 145.896 92.0007 146.382 91.5149C146.868 91.029 147.672 91.029 148.158 91.5149L152.011 95.3681L160.622 86.757C161.108 86.2711 161.912 86.2711 162.398 86.757C162.884 87.2428 162.884 88.0302 162.398 88.5328Z" fill="#18BB54"/>
<circle cx="153.998" cy="91.9981" r="34.6753" stroke="#18BB54" stroke-width="10.1299"/>
<circle cx="153.875" cy="42.4769" r="3.09412" fill="#D797F7"/>
<circle cx="191.538" cy="60.6627" r="3.09412" transform="rotate(39.8444 191.538 60.6627)" fill="#F2B634"/>
<circle cx="202.034" cy="101.613" r="3.09412" transform="rotate(90.0844 202.034 101.613)" fill="#E2AA89"/>
<circle cx="176.266" cy="135.054" r="3.09412" transform="rotate(171.109 176.266 135.054)" fill="#3B9CE3"/>
<circle cx="134.258" cy="136.095" r="3.09412" transform="rotate(-164.634 134.258 136.095)" fill="#C6F1BC"/>
<path d="M104.755 101.256C106.364 100.679 108.135 101.516 108.712 103.125C109.288 104.734 108.451 106.505 106.842 107.081C105.234 107.658 103.462 106.821 102.886 105.212C102.31 103.603 103.147 101.832 104.755 101.256Z" fill="#C6F1BC"/>
<circle cx="113.605" cy="62.191" r="3.09412" transform="rotate(-62.0848 113.605 62.191)" fill="#E793C5"/>
<circle cx="162.184" cy="44.0817" r="3.07641" transform="rotate(12.4581 162.184 44.0817)" fill="#D797F7"/>
<path d="M200.09 69.5074C198.746 70.5464 196.813 70.2988 195.775 68.9544C194.736 67.61 194.983 65.678 196.328 64.639C197.672 63.6001 199.604 63.8476 200.643 65.192C201.682 66.5364 201.434 68.4685 200.09 69.5074Z" fill="#F2B634"/>
<circle cx="200.684" cy="110.843" r="3.07641" transform="rotate(102.542 200.684 110.843)" fill="#E2AA89"/>
<circle cx="166.765" cy="134.59" r="3.07641" transform="rotate(-176.433 166.765 134.59)" fill="#3B9CE3"/>
<circle cx="124.805" cy="133.929" r="3.07641" transform="rotate(-152.175 124.805 133.929)" fill="#C6F1BC"/>
<circle cx="103.05" cy="95.8019" r="3.07641" transform="rotate(-97.254 103.05 95.8019)" fill="#C6F1BC"/>
<circle cx="118.047" cy="54.6256" r="3.07641" transform="rotate(-49.6267 118.047 54.6256)" fill="#E793C5"/>
<defs>
<filter id="filter0_f_3371_18004" x="0.4935" y="-61.5065" width="307.013" height="307.013" filterUnits="userSpaceOnUse" color-interpolation-filters="sRGB">
<feFlood flood-opacity="0" result="BackgroundImageFix"/>
<feBlend mode="normal" in="SourceGraphic" in2="BackgroundImageFix" result="shape"/>
<feGaussianBlur stdDeviation="46.7533" result="effect1_foregroundBlur_3371_18004"/>
</filter>
</defs>
</svg>
