<svg width="308" height="308" viewBox="0 0 308 308" fill="none" xmlns="http://www.w3.org/2000/svg">
<g filter="url(#filter0_f_4240_27670)">
<circle cx="154" cy="154" r="60" fill="#18BB54" fill-opacity="0.38"/>
</g>
<path d="M154.39 137.633C145.159 137.633 137.637 145.155 137.637 154.386C137.637 163.617 145.159 171.139 154.39 171.139C163.621 171.139 171.143 163.617 171.143 154.386C171.143 145.155 163.621 137.633 154.39 137.633ZM162.398 150.533L152.899 160.032C152.664 160.266 152.346 160.4 152.011 160.4C151.676 160.4 151.358 160.266 151.123 160.032L146.382 155.291C145.896 154.805 145.896 154.001 146.382 153.515C146.868 153.029 147.672 153.029 148.158 153.515L152.011 157.368L160.622 148.757C161.108 148.271 161.912 148.271 162.398 148.757C162.884 149.243 162.884 150.03 162.398 150.533Z" fill="#18BB54"/>
<circle cx="153.998" cy="153.998" r="34.6753" stroke="#18BB54" stroke-width="10.1299"/>
<circle cx="153.875" cy="104.477" r="3.09412" fill="#D797F7"/>
<circle cx="191.538" cy="122.663" r="3.09412" transform="rotate(39.8444 191.538 122.663)" fill="#F2B634"/>
<circle cx="202.034" cy="163.613" r="3.09412" transform="rotate(90.0844 202.034 163.613)" fill="#E2AA89"/>
<circle cx="176.266" cy="197.054" r="3.09412" transform="rotate(171.109 176.266 197.054)" fill="#3B9CE3"/>
<circle cx="134.258" cy="198.095" r="3.09412" transform="rotate(-164.634 134.258 198.095)" fill="#C6F1BC"/>
<path d="M104.755 163.256C106.364 162.679 108.135 163.516 108.712 165.125C109.288 166.734 108.451 168.505 106.842 169.081C105.234 169.658 103.462 168.821 102.886 167.212C102.31 165.603 103.147 163.832 104.755 163.256Z" fill="#C6F1BC"/>
<circle cx="113.605" cy="124.191" r="3.09412" transform="rotate(-62.0848 113.605 124.191)" fill="#E793C5"/>
<circle cx="162.184" cy="106.082" r="3.07641" transform="rotate(12.4581 162.184 106.082)" fill="#D797F7"/>
<path d="M200.09 131.507C198.746 132.546 196.813 132.299 195.775 130.954C194.736 129.61 194.983 127.678 196.328 126.639C197.672 125.6 199.604 125.848 200.643 127.192C201.682 128.536 201.434 130.468 200.09 131.507Z" fill="#F2B634"/>
<circle cx="200.684" cy="172.843" r="3.07641" transform="rotate(102.542 200.684 172.843)" fill="#E2AA89"/>
<circle cx="166.765" cy="196.59" r="3.07641" transform="rotate(-176.433 166.765 196.59)" fill="#3B9CE3"/>
<circle cx="124.805" cy="195.929" r="3.07641" transform="rotate(-152.175 124.805 195.929)" fill="#C6F1BC"/>
<circle cx="103.05" cy="157.802" r="3.07641" transform="rotate(-97.254 103.05 157.802)" fill="#C6F1BC"/>
<circle cx="118.047" cy="116.626" r="3.07641" transform="rotate(-49.6267 118.047 116.626)" fill="#E793C5"/>
<defs>
<filter id="filter0_f_4240_27670" x="0.4935" y="0.4935" width="307.013" height="307.013" filterUnits="userSpaceOnUse" color-interpolation-filters="sRGB">
<feFlood flood-opacity="0" result="BackgroundImageFix"/>
<feBlend mode="normal" in="SourceGraphic" in2="BackgroundImageFix" result="shape"/>
<feGaussianBlur stdDeviation="46.7533" result="effect1_foregroundBlur_4240_27670"/>
</filter>
</defs>
</svg>
