<svg width="17" height="16" viewBox="0 0 17 16" fill="none" xmlns="http://www.w3.org/2000/svg">
<circle cx="8.49967" cy="8.0026" r="6.66667" stroke="#DEDEE1"/>
<path d="M9 4.67188C9 4.39573 8.77614 4.17188 8.5 4.17188C8.22386 4.17188 8 4.39573 8 4.67188H9ZM9.85355 8.65165C9.65829 8.45639 9.34171 8.45639 9.14645 8.65165C8.95118 8.84692 8.95118 9.1635 9.14645 9.35876L9.85355 8.65165ZM10.1464 10.3588C10.3417 10.554 10.6583 10.554 10.8536 10.3588C11.0488 10.1635 11.0488 9.84692 10.8536 9.65166L10.1464 10.3588ZM8 4.67188V7.00521H9V4.67188H8ZM9.14645 9.35876L10.1464 10.3588L10.8536 9.65166L9.85355 8.65165L9.14645 9.35876ZM9 8.00521C9 8.28135 8.77614 8.50521 8.5 8.50521V9.50521C9.32843 9.50521 10 8.83364 10 8.00521H9ZM8.5 8.50521C8.22386 8.50521 8 8.28135 8 8.00521H7C7 8.83364 7.67157 9.50521 8.5 9.50521V8.50521ZM8 8.00521C8 7.72907 8.22386 7.50521 8.5 7.50521V6.50521C7.67157 6.50521 7 7.17678 7 8.00521H8ZM8.5 7.50521C8.77614 7.50521 9 7.72907 9 8.00521H10C10 7.17678 9.32843 6.50521 8.5 6.50521V7.50521Z" fill="#DEDEE1"/>
</svg>
