<svg width="21" height="20" viewBox="0 0 21 20" fill="none" xmlns="http://www.w3.org/2000/svg">
<path d="M2.4974 9.16927C2.4974 6.41941 2.4974 5.04448 3.35167 4.19021C4.20594 3.33594 5.58087 3.33594 8.33073 3.33594H9.16406C11.9139 3.33594 13.2889 3.33594 14.1431 4.19021C14.9974 5.04448 14.9974 6.41941 14.9974 9.16927V10.8359C14.9974 13.5858 14.9974 14.9607 14.1431 15.815C13.2889 16.6693 11.9139 16.6693 9.16406 16.6693H8.33073C5.58087 16.6693 4.20594 16.6693 3.35167 15.815C2.4974 14.9607 2.4974 13.5858 2.4974 10.8359V9.16927Z" stroke="white" stroke-width="1.5"/>
<path d="M14.9974 7.42675L15.1023 7.34018C16.8655 5.8854 17.747 5.15801 18.4556 5.50923C19.1641 5.86044 19.1641 7.02483 19.1641 9.35361V10.6568C19.1641 12.9856 19.1641 14.15 18.4556 14.5012C17.747 14.8524 16.8655 14.125 15.1023 12.6702L14.9974 12.5837" stroke="white" stroke-width="1.5" stroke-linecap="round"/>
<ellipse cx="10.4115" cy="7.92188" rx="1.25" ry="1.25" stroke="white" stroke-width="1.5"/>
</svg>
