<svg width="20" height="20" viewBox="0 0 20 20" fill="none" xmlns="http://www.w3.org/2000/svg">
<path d="M2.08594 6.25H17.9193" stroke="white" stroke-width="1.5" stroke-linejoin="round"/>
<path d="M14.1719 2.07812L11.6719 6.24479" stroke="white" stroke-width="1.5" stroke-linejoin="round"/>
<path d="M8.33594 2.07812L5.83594 6.24479" stroke="white" stroke-width="1.5" stroke-linejoin="round"/>
<path d="M2.08594 9.99479C2.08594 6.26284 2.08594 4.39686 3.24531 3.23749C4.40468 2.07812 6.27065 2.07812 10.0026 2.07812C13.7346 2.07812 15.6005 2.07812 16.7599 3.23749C17.9193 4.39686 17.9193 6.26284 17.9193 9.99479C17.9193 13.7267 17.9193 15.5927 16.7599 16.7521C15.6005 17.9115 13.7346 17.9115 10.0026 17.9115C6.27065 17.9115 4.40468 17.9115 3.24531 16.7521C2.08594 15.5927 2.08594 13.7267 2.08594 9.99479Z" stroke="white" stroke-width="1.5"/>
<path d="M12.4609 12.4019C12.3347 12.9242 11.7381 13.2933 10.5449 14.0314C9.39145 14.7449 8.81471 15.1017 8.34994 14.9583C8.15779 14.899 7.98271 14.7864 7.84152 14.6313C7.5 14.2561 7.5 13.5284 7.5 12.0729C7.5 10.6175 7.5 9.88973 7.84152 9.51454C7.98271 9.35942 8.15779 9.24682 8.34994 9.18752C8.81471 9.04411 9.39145 9.40089 10.5449 10.1144C11.7381 10.8526 12.3347 11.2216 12.4609 11.7439C12.513 11.9595 12.513 12.1863 12.4609 12.4019Z" stroke="white" stroke-width="1.5" stroke-linejoin="round"/>
</svg>
