<svg width="201" height="86" viewBox="0 0 201 86" fill="none" xmlns="http://www.w3.org/2000/svg">
<g clip-path="url(#clip0_5968_65526)">
<rect opacity="0.15" x="76.5" width="48" height="48" rx="12" fill="#1ED760"/>
<path d="M89.9912 31.7212C89.8046 31.5927 89.631 31.4481 89.4684 31.2855C88.0039 29.8211 88.0039 27.464 88.0039 22.75C88.0039 18.036 88.0039 15.6789 89.4684 14.2145C90.9328 12.75 93.2899 12.75 98.0039 12.75H103.004C107.718 12.75 110.075 12.75 111.539 14.2145C113.004 15.6789 113.004 18.036 113.004 22.75C113.004 27.464 113.004 29.8211 111.539 31.2855C111.377 31.4481 111.203 31.5927 111.017 31.7212" stroke="#1ED760" stroke-width="1.875" stroke-linecap="round"/>
<path d="M96.3618 30.1575C95.281 30.8156 92.4474 32.1595 94.1733 33.8411C95.0164 34.6625 95.9553 35.25 97.1358 35.25H103.872C105.052 35.25 105.991 34.6625 106.835 33.8411C108.56 32.1595 105.727 30.8156 104.646 30.1575C102.112 28.6142 98.8961 28.6142 96.3618 30.1575Z" stroke="#1ED760" stroke-width="1.875" stroke-linecap="round" stroke-linejoin="round"/>
<path d="M103.629 22.75C103.629 24.4759 102.23 25.875 100.504 25.875C98.778 25.875 97.3789 24.4759 97.3789 22.75C97.3789 21.0241 98.778 19.625 100.504 19.625C102.23 19.625 103.629 21.0241 103.629 22.75Z" stroke="#1ED760" stroke-width="1.875"/>
</g>
<path d="M30.528 71.8182H32.6111L35.1018 76.3224H35.2013L37.692 71.8182H39.7751L36.0713 78.2017V82H34.2318V78.2017L30.528 71.8182ZM42.9607 82.1491C42.195 82.1491 41.5338 81.9901 40.977 81.6719C40.4235 81.3504 39.9976 80.8963 39.6993 80.3097C39.401 79.7197 39.2519 79.0253 39.2519 78.2266C39.2519 77.4411 39.401 76.7517 39.6993 76.1584C40.0009 75.5618 40.4218 75.0978 40.9621 74.7663C41.5023 74.4316 42.137 74.2642 42.8662 74.2642C43.3369 74.2642 43.781 74.3404 44.1986 74.4929C44.6195 74.642 44.9907 74.8741 45.3122 75.1889C45.637 75.5038 45.8923 75.9048 46.0779 76.392C46.2635 76.8759 46.3563 77.4527 46.3563 78.1222V78.674H40.097V77.4609H44.6311C44.6278 77.1162 44.5532 76.8097 44.4074 76.5412C44.2616 76.2694 44.0577 76.0556 43.7959 75.8999C43.5374 75.7441 43.2358 75.6662 42.8911 75.6662C42.5232 75.6662 42.2 75.7557 41.9216 75.9347C41.6432 76.1103 41.4261 76.3423 41.2703 76.6307C41.1179 76.9157 41.04 77.2289 41.0367 77.5703V78.6293C41.0367 79.0734 41.1179 79.4545 41.2803 79.7727C41.4427 80.0876 41.6697 80.3295 41.9614 80.4986C42.253 80.6643 42.5944 80.7472 42.9855 80.7472C43.2474 80.7472 43.4843 80.7107 43.6965 80.6378C43.9086 80.5616 44.0925 80.4505 44.2483 80.3047C44.4041 80.1589 44.5218 79.9782 44.6013 79.7628L46.2817 79.9517C46.1756 80.3958 45.9735 80.7836 45.6752 81.1151C45.3802 81.4432 45.0023 81.6984 44.5416 81.8807C44.0809 82.0597 43.5539 82.1491 42.9607 82.1491ZM50.0763 82.1541C49.5924 82.1541 49.1565 82.0679 48.7687 81.8956C48.3843 81.7199 48.0793 81.4614 47.854 81.12C47.6319 80.7786 47.5209 80.3577 47.5209 79.8572C47.5209 79.4264 47.6004 79.0701 47.7595 78.7884C47.9186 78.5066 48.1357 78.2812 48.4108 78.1122C48.6859 77.9432 48.9958 77.8156 49.3405 77.7294C49.6885 77.6399 50.0481 77.5753 50.4193 77.5355C50.8667 77.4891 51.2297 77.4477 51.5081 77.4112C51.7865 77.3714 51.9887 77.3118 52.1146 77.2322C52.2439 77.1494 52.3085 77.0218 52.3085 76.8494V76.8196C52.3085 76.4451 52.1975 76.1551 51.9754 75.9496C51.7533 75.7441 51.4335 75.6413 51.0159 75.6413C50.5751 75.6413 50.2254 75.7375 49.9669 75.9297C49.7117 76.1219 49.5393 76.349 49.4498 76.6108L47.7694 76.3722C47.902 75.9081 48.1208 75.5204 48.4257 75.2088C48.7306 74.8939 49.1035 74.6586 49.5443 74.5028C49.9851 74.3438 50.4723 74.2642 51.0059 74.2642C51.3738 74.2642 51.7401 74.3073 52.1047 74.3935C52.4693 74.4796 52.8023 74.6222 53.104 74.821C53.4056 75.0166 53.6475 75.2834 53.8298 75.6214C54.0154 75.9595 54.1082 76.3821 54.1082 76.8892V82H52.3781V80.951H52.3184C52.2091 81.1631 52.055 81.362 51.8561 81.5476C51.6605 81.7299 51.4136 81.8774 51.1153 81.9901C50.8203 82.0994 50.474 82.1541 50.0763 82.1541ZM50.5436 80.8317C50.9049 80.8317 51.2181 80.7604 51.4832 80.6179C51.7484 80.4721 51.9522 80.2798 52.0947 80.0412C52.2406 79.8026 52.3135 79.5424 52.3135 79.2607V78.3608C52.2571 78.4072 52.161 78.4503 52.0251 78.4901C51.8925 78.5298 51.7434 78.5646 51.5777 78.5945C51.412 78.6243 51.2479 78.6508 51.0855 78.674C50.9231 78.6972 50.7822 78.7171 50.6629 78.7337C50.3944 78.7701 50.1541 78.8298 49.942 78.9126C49.7299 78.9955 49.5625 79.1115 49.4399 79.2607C49.3173 79.4065 49.2559 79.5954 49.2559 79.8274C49.2559 80.1589 49.3769 80.4091 49.6189 80.5781C49.8608 80.7472 50.1691 80.8317 50.5436 80.8317ZM55.9179 82V74.3636H57.6629V75.6364H57.7425C57.8817 75.1955 58.1203 74.8558 58.4584 74.6172C58.7997 74.3752 59.1892 74.2543 59.6267 74.2543C59.7261 74.2543 59.8372 74.2592 59.9598 74.2692C60.0857 74.2758 60.1901 74.2874 60.273 74.304V75.9595C60.1968 75.933 60.0758 75.9098 59.9101 75.8899C59.7477 75.8667 59.5902 75.8551 59.4378 75.8551C59.1096 75.8551 58.8147 75.9264 58.5528 76.0689C58.2943 76.2081 58.0905 76.402 57.9413 76.6506C57.7922 76.8991 57.7176 77.1858 57.7176 77.5107V82H55.9179ZM63.2684 71.8182V82H61.4687V71.8182H63.2684ZM66.2377 84.8636C65.9924 84.8636 65.7654 84.8438 65.5566 84.804C65.3511 84.7675 65.187 84.7244 65.0644 84.6747L65.482 83.2727C65.7438 83.349 65.9775 83.3854 66.183 83.3821C66.3885 83.3788 66.5691 83.3142 66.7249 83.1882C66.884 83.0656 67.0182 82.8601 67.1276 82.5717L67.2817 82.1591L64.5125 74.3636H66.4216L68.1816 80.1307H68.2611L70.026 74.3636H71.9401L68.8825 82.9247C68.74 83.3291 68.5511 83.6754 68.3158 83.9638C68.0805 84.2554 67.7921 84.4775 67.4507 84.63C67.1127 84.7857 66.7083 84.8636 66.2377 84.8636ZM76.7377 82V71.8182H78.5821V80.4538H83.0665V82H76.7377ZM84.5878 82V74.3636H86.3875V82H84.5878ZM85.4926 73.2798C85.2076 73.2798 84.9623 73.1854 84.7568 72.9964C84.5513 72.8042 84.4486 72.5739 84.4486 72.3054C84.4486 72.0336 84.5513 71.8033 84.7568 71.6143C84.9623 71.4221 85.2076 71.326 85.4926 71.326C85.781 71.326 86.0262 71.4221 86.2284 71.6143C86.4339 71.8033 86.5367 72.0336 86.5367 72.3054C86.5367 72.5739 86.4339 72.8042 86.2284 72.9964C86.0262 73.1854 85.781 73.2798 85.4926 73.2798ZM95.0592 74.3636L92.3398 82H90.3511L87.6317 74.3636H89.5507L91.3057 80.0362H91.3852L93.1452 74.3636H95.0592ZM99.4255 82.1491C98.6599 82.1491 97.9987 81.9901 97.4419 81.6719C96.8883 81.3504 96.4624 80.8963 96.1642 80.3097C95.8659 79.7197 95.7167 79.0253 95.7167 78.2266C95.7167 77.4411 95.8659 76.7517 96.1642 76.1584C96.4658 75.5618 96.8867 75.0978 97.4269 74.7663C97.9672 74.4316 98.6019 74.2642 99.3311 74.2642C99.8017 74.2642 100.246 74.3404 100.663 74.4929C101.084 74.642 101.456 74.8741 101.777 75.1889C102.102 75.5038 102.357 75.9048 102.543 76.392C102.728 76.8759 102.821 77.4527 102.821 78.1222V78.674H96.5619V77.4609H101.096C101.093 77.1162 101.018 76.8097 100.872 76.5412C100.726 76.2694 100.523 76.0556 100.261 75.8999C100.002 75.7441 99.7006 75.6662 99.3559 75.6662C98.988 75.6662 98.6649 75.7557 98.3865 75.9347C98.108 76.1103 97.891 76.3423 97.7352 76.6307C97.5827 76.9157 97.5048 77.2289 97.5015 77.5703V78.6293C97.5015 79.0734 97.5827 79.4545 97.7451 79.7727C97.9075 80.0876 98.1346 80.3295 98.4262 80.4986C98.7179 80.6643 99.0593 80.7472 99.4504 80.7472C99.7122 80.7472 99.9492 80.7107 100.161 80.6378C100.373 80.5616 100.557 80.4505 100.713 80.3047C100.869 80.1589 100.987 79.9782 101.066 79.7628L102.747 79.9517C102.64 80.3958 102.438 80.7836 102.14 81.1151C101.845 81.4432 101.467 81.6984 101.006 81.8807C100.546 82.0597 100.019 82.1491 99.4255 82.1491ZM110.039 82L107.165 71.8182H109.149L110.983 79.3004H111.078L113.036 71.8182H114.841L116.805 79.3054H116.894L118.729 71.8182H120.713L117.839 82H116.019L113.981 74.8558H113.902L111.858 82H110.039ZM124.513 82.1491C123.748 82.1491 123.087 81.9901 122.53 81.6719C121.976 81.3504 121.55 80.8963 121.252 80.3097C120.954 79.7197 120.805 79.0253 120.805 78.2266C120.805 77.4411 120.954 76.7517 121.252 76.1584C121.554 75.5618 121.975 75.0978 122.515 74.7663C123.055 74.4316 123.69 74.2642 124.419 74.2642C124.89 74.2642 125.334 74.3404 125.751 74.4929C126.172 74.642 126.543 74.8741 126.865 75.1889C127.19 75.5038 127.445 75.9048 127.631 76.392C127.816 76.8759 127.909 77.4527 127.909 78.1222V78.674H121.65V77.4609H126.184C126.181 77.1162 126.106 76.8097 125.96 76.5412C125.814 76.2694 125.61 76.0556 125.349 75.8999C125.09 75.7441 124.789 75.6662 124.444 75.6662C124.076 75.6662 123.753 75.7557 123.474 75.9347C123.196 76.1103 122.979 76.3423 122.823 76.6307C122.671 76.9157 122.593 77.2289 122.589 77.5703V78.6293C122.589 79.0734 122.671 79.4545 122.833 79.7727C122.995 80.0876 123.222 80.3295 123.514 80.4986C123.806 80.6643 124.147 80.7472 124.538 80.7472C124.8 80.7472 125.037 80.7107 125.249 80.6378C125.461 80.5616 125.645 80.4505 125.801 80.3047C125.957 80.1589 126.074 79.9782 126.154 79.7628L127.834 79.9517C127.728 80.3958 127.526 80.7836 127.228 81.1151C126.933 81.4432 126.555 81.6984 126.094 81.8807C125.634 82.0597 125.107 82.1491 124.513 82.1491ZM129.511 82V71.8182H131.311V75.6264H131.385C131.478 75.4408 131.609 75.2436 131.778 75.0348C131.947 74.8227 132.176 74.642 132.464 74.4929C132.753 74.3404 133.12 74.2642 133.568 74.2642C134.158 74.2642 134.69 74.415 135.164 74.7166C135.641 75.0149 136.019 75.4574 136.297 76.044C136.579 76.6274 136.72 77.3433 136.72 78.1918C136.72 79.0303 136.582 79.7429 136.307 80.3295C136.032 80.9162 135.658 81.3636 135.184 81.6719C134.71 81.9801 134.173 82.1342 133.573 82.1342C133.135 82.1342 132.772 82.0613 132.484 81.9155C132.196 81.7696 131.964 81.594 131.788 81.3885C131.616 81.1797 131.482 80.9825 131.385 80.7969H131.281V82H129.511ZM131.276 78.1818C131.276 78.6757 131.346 79.1082 131.485 79.4794C131.627 79.8506 131.831 80.1406 132.096 80.3494C132.365 80.5549 132.69 80.6577 133.071 80.6577C133.468 80.6577 133.802 80.5516 134.07 80.3395C134.339 80.1241 134.541 79.8307 134.677 79.4595C134.816 79.085 134.885 78.6591 134.885 78.1818C134.885 77.7079 134.817 77.2869 134.682 76.919C134.546 76.5511 134.343 76.2628 134.075 76.054C133.807 75.8452 133.472 75.7408 133.071 75.7408C132.686 75.7408 132.36 75.8419 132.091 76.044C131.823 76.2462 131.619 76.5296 131.48 76.8942C131.344 77.2588 131.276 77.688 131.276 78.1818ZM138.25 82V74.3636H140.05V82H138.25ZM139.155 73.2798C138.87 73.2798 138.624 73.1854 138.419 72.9964C138.213 72.8042 138.111 72.5739 138.111 72.3054C138.111 72.0336 138.213 71.8033 138.419 71.6143C138.624 71.4221 138.87 71.326 139.155 71.326C139.443 71.326 139.688 71.4221 139.891 71.6143C140.096 71.8033 140.199 72.0336 140.199 72.3054C140.199 72.5739 140.096 72.8042 139.891 72.9964C139.688 73.1854 139.443 73.2798 139.155 73.2798ZM143.7 77.5256V82H141.9V74.3636H143.62V75.6612H143.71C143.886 75.2337 144.166 74.8939 144.55 74.642C144.938 74.3902 145.417 74.2642 145.987 74.2642C146.514 74.2642 146.973 74.3769 147.364 74.6023C147.758 74.8277 148.063 75.1541 148.279 75.5817C148.498 76.0092 148.605 76.5279 148.602 77.1378V82H146.802V77.4162C146.802 76.9058 146.67 76.5064 146.405 76.218C146.143 75.9297 145.78 75.7855 145.316 75.7855C145.001 75.7855 144.721 75.8551 144.476 75.9943C144.234 76.1302 144.043 76.3274 143.904 76.5859C143.768 76.8445 143.7 77.1577 143.7 77.5256ZM152.629 82.1541C152.145 82.1541 151.709 82.0679 151.321 81.8956C150.937 81.7199 150.632 81.4614 150.407 81.12C150.185 80.7786 150.074 80.3577 150.074 79.8572C150.074 79.4264 150.153 79.0701 150.312 78.7884C150.471 78.5066 150.688 78.2812 150.964 78.1122C151.239 77.9432 151.549 77.8156 151.893 77.7294C152.241 77.6399 152.601 77.5753 152.972 77.5355C153.419 77.4891 153.782 77.4477 154.061 77.4112C154.339 77.3714 154.541 77.3118 154.667 77.2322C154.797 77.1494 154.861 77.0218 154.861 76.8494V76.8196C154.861 76.4451 154.75 76.1551 154.528 75.9496C154.306 75.7441 153.986 75.6413 153.569 75.6413C153.128 75.6413 152.778 75.7375 152.52 75.9297C152.264 76.1219 152.092 76.349 152.003 76.6108L150.322 76.3722C150.455 75.9081 150.674 75.5204 150.978 75.2088C151.283 74.8939 151.656 74.6586 152.097 74.5028C152.538 74.3438 153.025 74.2642 153.559 74.2642C153.927 74.2642 154.293 74.3073 154.657 74.3935C155.022 74.4796 155.355 74.6222 155.657 74.821C155.958 75.0166 156.2 75.2834 156.383 75.6214C156.568 75.9595 156.661 76.3821 156.661 76.8892V82H154.931V80.951H154.871C154.762 81.1631 154.608 81.362 154.409 81.5476C154.213 81.7299 153.966 81.8774 153.668 81.9901C153.373 82.0994 153.027 82.1541 152.629 82.1541ZM153.096 80.8317C153.458 80.8317 153.771 80.7604 154.036 80.6179C154.301 80.4721 154.505 80.2798 154.647 80.0412C154.793 79.8026 154.866 79.5424 154.866 79.2607V78.3608C154.81 78.4072 154.714 78.4503 154.578 78.4901C154.445 78.5298 154.296 78.5646 154.13 78.5945C153.965 78.6243 153.801 78.6508 153.638 78.674C153.476 78.6972 153.335 78.7171 153.216 78.7337C152.947 78.7701 152.707 78.8298 152.495 78.9126C152.283 78.9955 152.115 79.1115 151.993 79.2607C151.87 79.4065 151.809 79.5954 151.809 79.8274C151.809 80.1589 151.93 80.4091 152.172 80.5781C152.414 80.7472 152.722 80.8317 153.096 80.8317ZM158.471 82V74.3636H160.216V75.6364H160.295C160.434 75.1955 160.673 74.8558 161.011 74.6172C161.352 74.3752 161.742 74.2543 162.179 74.2543C162.279 74.2543 162.39 74.2592 162.513 74.2692C162.638 74.2758 162.743 74.2874 162.826 74.304V75.9595C162.749 75.933 162.629 75.9098 162.463 75.8899C162.3 75.8667 162.143 75.8551 161.991 75.8551C161.662 75.8551 161.367 75.9264 161.106 76.0689C160.847 76.2081 160.643 76.402 160.494 76.6506C160.345 76.8991 160.27 77.1858 160.27 77.5107V82H158.471ZM170.057 76.3821L168.416 76.5611C168.37 76.3954 168.289 76.2396 168.173 76.0938C168.06 75.9479 167.908 75.8303 167.715 75.7408C167.523 75.6513 167.288 75.6065 167.009 75.6065C166.635 75.6065 166.32 75.6877 166.065 75.8501C165.813 76.0125 165.689 76.223 165.692 76.4815C165.689 76.7036 165.77 76.8842 165.935 77.0234C166.104 77.1626 166.383 77.277 166.771 77.3665L168.073 77.6449C168.796 77.8007 169.333 78.0476 169.684 78.3857C170.039 78.7237 170.218 79.1662 170.221 79.7131C170.218 80.1937 170.077 80.6179 169.798 80.9858C169.523 81.3504 169.14 81.6354 168.65 81.8409C168.159 82.0464 167.596 82.1491 166.96 82.1491C166.025 82.1491 165.273 81.9536 164.703 81.5625C164.132 81.1681 163.793 80.6196 163.683 79.9169L165.438 79.7479C165.518 80.0926 165.687 80.3527 165.945 80.5284C166.204 80.7041 166.54 80.7919 166.955 80.7919C167.382 80.7919 167.725 80.7041 167.984 80.5284C168.246 80.3527 168.377 80.1357 168.377 79.8771C168.377 79.6584 168.292 79.4777 168.123 79.3352C167.957 79.1927 167.699 79.0833 167.347 79.0071L166.045 78.7337C165.312 78.5812 164.77 78.3243 164.419 77.9631C164.068 77.5985 163.894 77.1378 163.897 76.581C163.894 76.1103 164.021 75.7027 164.28 75.358C164.542 75.0099 164.905 74.7415 165.369 74.5526C165.836 74.3603 166.375 74.2642 166.984 74.2642C167.879 74.2642 168.584 74.4548 169.097 74.8359C169.614 75.2171 169.934 75.7325 170.057 76.3821Z" fill="#FAFAFA"/>
<defs>
<clipPath id="clip0_5968_65526">
<rect x="76.5" width="48" height="48" rx="12" fill="white"/>
</clipPath>
</defs>
</svg>
